<?xml version="1.0" encoding="UTF-8"?>
<svg id="Layer_1" data-name="Layer 1" xmlns="http://www.w3.org/2000/svg" viewBox="0 0 294.31 335.94">
  <defs>
    <style>
      .cls-1 {
        fill: #211e1f;
      }
    </style>
  </defs>
  <path class="cls-1" d="M146.26,68.59c-42.36-4.41-89.01,23.8-97.56,72.15-9.03,51.06,23.53,96.31,66.58,109.91.18,6.61-1.97,11.56-3.05,18.14-.56,3.41-.61,7.32,1.95,9.84,1.13,1.11,1.62,1.08,2.22,1.13.96,1.13,2.23,1.95,3.66,2.53.88,1.31-.32,2.07-1.74,4.29-3.3,5.16-5.77,10.73-7.77,16.62-.33.98.3,1.84,1.05,2.21,4.48,2.2,9.08,3.99,13.78,5.36-.08.1-.15.23-.14.4.36,11.81,6.33,25.78,18.9,24.7,10.55-.91,16.76-12.34,15.53-23.19,2.22-.38,4.44-.83,6.62-1.42,2.78-.75,8.2-1.65,9.78-4.97,1.63-3.44-.29-8.42-.92-11.71-.63-3.28-2.92-9.29-2.4-12.56.27-1.72,1.09-2.86,2.07-3.78,0,0,.01,0,.02,0,.3-.13.51-.34.66-.57.91-.72,1.89-1.32,2.72-2.02,2.66-2.23,4.06-2.13,3.95-6.04-.19-6.6-3.19-14.31-4.97-20.9,38.49-14.92,67.49-55.09,62.08-102.2-5.61-48.77-50.47-79.75-93.02-77.92ZM114.64,271.95c-.02-.11-.04-.19-.06-.31-.2-1.21.09-2.68.54-4.19-.22,1.51-.39,3.01-.48,4.5ZM126.46,311.06c1.49.41,2.99.78,4.51,1.1-.32,5.82.66,11.37,2.93,16.56-4.18-4.43-6.34-11.68-7.44-17.67ZM135.65,323.72c.62.86,1.31,1.6,2.08,2.22-.52-.18-1.03-.38-1.56-.62-.19-.53-.36-1.06-.52-1.6ZM135.41,312.98c.1.02.21.02.32.04.11.45.24,1.01.38,1.62-.24-.55-.49-1.09-.7-1.66ZM142.31,332.78c-1.59-.08-3.01-.47-4.31-1.06.22-.28.35-.65.32-1.12-.01-.26-.05-.48-.07-.71,1.74.41,3.48.51,5.27.24,0,.02,0,.04-.01.06-.31,1.27.47,2.17,1.45,2.27.05.05.1.1.15.14-.88.15-1.8.24-2.79.19ZM141.38,314.58s-.02.01-.02.02c-.12-.34-.26-.67-.39-1,.26.02.51.03.77.05-.2.26-.31.59-.36.94ZM142.38,317.66c.43.07.86.14,1.29.2-.39.38-.76.73-1.1,1.01-.1-.42-.21-.84-.32-1.25.04.01.08.04.13.04ZM143.8,324.33c0-.14.03-.28,0-.43-.13-.53-.26-1.08-.39-1.62.21-.13.41-.24.61-.39.02.26,0,.5.04.76.11.7.53,1.08,1.03,1.22-.42.21-.85.36-1.29.46ZM147.39,331.98c.08-.16.13-.33.15-.52.32-.18.65-.34.96-.53.66-.27,1.52-.63,2.1-.89-.95.81-2.02,1.47-3.21,1.94ZM147.38,327.39c-.06-.3-.18-.57-.35-.81,3.58-2.22,6.28-6.89,8.48-10.59-1.44,4.91-4.23,8.79-8.14,11.4ZM150.7,314.01c-.22-.1-.44-.19-.66-.28,1.1-.05,2.21-.12,3.31-.22-.37.55-.77,1.17-1.18,1.83-.08-.41-.3-.79-.72-1.02-.13-.07-.26-.1-.39-.16,0-.01,0-.02.01-.03-.12-.05-.25-.08-.37-.12ZM150.76,317.62c-.43.68-.89,1.37-1.36,2.03.26-.68.45-1.39.59-2.15.04.02.09.03.13.04.22.09.44.11.64.08ZM156.82,313.14c-.24.11-.44.31-.6.59-.06-.19-.16-.35-.28-.5.29-.04.59-.07.88-.1h0ZM170.63,304.29c-2.59,2.68-4.49,3.22-7.81,3.98-6.16,1.41-12.45,2.02-18.73,1.83-3.43-.1-6.81-.48-10.15-1.07-.51-.58-1.28-.68-1.9-.33-6.13-1.24-12.1-3.28-17.89-5.95.44-1.24.9-2.48,1.39-3.69,6.94,2.56,14.05,4.07,21.39,4.43,1.16.06,1.16-1.78.06-1.95-6.93-1.11-13.73-2.69-20.46-4.81.72-1.63,1.48-3.23,2.33-4.79,1.35-2.46,5.02-6.14,5.36-9,.46-.3.75-.82.81-1.36,7.12,1.14,14.98.57,21.72.55,7.3-.02,15.13-.14,22.41-2-.36,5.06,2.05,11.52,2.76,15.35.79,4.23,1.95,5.48-1.28,8.83ZM177.93,265.25c.34,7.79-3.54,6.35-6.85,9.81-.32.33-.58.7-.82,1.09-8.76,1.44-17.36,2.53-26.32,2.52-7.06,0-14.73-1.37-21.91-.84-.73-.42-1.45-.28-2.15,0-1.07-1.02-1.78-2.43-2.04-4.54-.07-.57-.06-1.19-.03-1.83,11.25,3.96,25.04,3.95,36.41,1.88,1.24-.22,1.03-2.46-.22-2.43-6.38.16-12.72.5-19.11.06-5.65-.39-11.18-1.6-16.78-2.22.21-1.37.47-2.73.58-3.92.12-1.24.25-2.48.37-3.71,2.71,1.44,6.3,1.48,9.29,1.89,5.26.73,10.44,1.11,15.73.55,1.3-.14.84-1.92-.22-2.09-5.11-.82-10.27-1.12-15.41-1.79-3-.39-6.18-1.51-9.15-1.13.18-2.25.29-4.51.18-6.76,6.49,3.42,16.16,4.13,22.42,2.89.37-.07.54-.34.63-.64,7.05.41,14.34.12,21.25-1.68.34.16.72.25,1.18.14,3.16-.74,6.26-1.68,9.32-2.75,1.36,4.96,3.43,10.58,3.64,15.5ZM117.12,251.09c.24-.02.46-.08.66-.18-.13.46-.28.92-.39,1.38-.08-.4-.16-.8-.27-1.19ZM128.79,248.16c2.58-3.02,4.3-6.99,5.22-11.15-.39,3.48-1.13,6.92-2.49,10.31-.19.47-.18.91-.05,1.31-.89-.15-1.78-.31-2.67-.47ZM138.45,217.98c-.17,1.04-.29,2.08-.4,3.12-1.04-1.68-3.98-1.24-3.87,1.19.05,1,.09,2,.13,3-.18-.9-.34-1.78-.28-2.48.38-4.58,2.21-5.71,4.5-5.91.05.22.14.42.26.57-.16.11-.29.27-.33.52ZM140.33,228.66s0,.03,0,.05c0-.01,0-.03,0-.03v-.02ZM140.76,245.45c.01.47.02.94.04,1.41-.52-.07-1.04-.18-1.57-.25.16-.44.29-.88.38-1.31.37.05.75.1,1.15.16ZM132.26,152.99c.16.03.34.06.5.08,8.23,1.47,17.28,2.85,25.99,2.42-.89,3.56-1.54,7.18-2.19,10.47-3.1,15.78-5.5,31.7-7.35,47.71-1.03,0-2.06.02-3.09.03,1-16.12,1.82-32.97.49-48.99-.02-.2-.28-.22-.29,0-1.4,16.25-1.66,32.71-2.72,49.02-.91.01-1.83.01-2.74.03-.06-20.5-1.03-41.89-8.6-60.76ZM152.89,230.57c.06,1.94.16,3.87.28,5.81-.16-.17-.34-.29-.54-.36-.13-.64-.23-1.28-.32-1.92.16-1.18.37-2.36.59-3.53ZM150.15,223.6c-.02.07-.03.14-.04.2,0-.07,0-.14,0-.2.02,0,.03,0,.04,0ZM151.1,247.72s-.07,0-.11,0c.02-.03.03-.07.05-.1.02.04.04.07.06.11ZM146.45,236.75c-.16-.02-.32-.03-.48-.04.07-.51.15-1.01.22-1.51.1.55.19,1.07.26,1.56ZM143.83,228.21c-.09.59-.17,1.19-.26,1.78-.02-.76-.04-1.53-.07-2.29.11.16.22.33.32.5ZM147.06,245.55c.01.62.02,1.24.03,1.85-.89-.05-1.78-.14-2.66-.22.07-.48.14-.95.21-1.43.84,0,1.66-.06,2.42-.2ZM159.69,248.84c.4-1.58.29-3.62.12-5.47.34,1.76.82,3.52,1.4,5.26-.51.08-1.01.13-1.52.21ZM159.8,220.59c.07-.09.12-.2.17-.3-.04.28-.07.57-.11.85,0-.05,0-.1,0-.15,0-.15-.04-.27-.07-.4ZM158.69,216.99c.59,0,1.18,0,1.77,0-.09.58-.18,1.17-.27,1.76-.14-.81-.63-1.54-1.5-1.76ZM236.32,145.89c5.91,50.05-28.77,91.35-70.99,101.99-.32.06-.64.12-.96.18-3.75-10.37-2.36-21.42-.65-32.26.16-1.03-.31-2.19-1.41-2.18-3.21.02-6.41.02-9.62.03,2.19-18.85,4.75-38.05,9.36-56.38.16-.62.33-1.35.52-2.11,2.16-.26,4.31-.6,6.39-1.15,4.98-1.32,13.65-4.76,12.12-12.12-1.39-6.69-8.68-6.66-12.94-3.49-4.12,3.06-6.57,7.83-8.25,13.03-7.48.5-15.21-.37-22.52-1.49-2.33-.36-4.66-.78-6.97-1.24-.22-.48-.42-.96-.66-1.43-3.27-6.66-8.76-15.43-16.59-14.94-5.22.32-9.41,5.39-6.36,10.97,3.49,6.38,13.87,7.99,21.46,9.08,1.68,3.84,3.13,7.8,4.26,11.88,4.44,15.98,5.19,32.83,5.83,49.47-2.47-.02-5.22.12-6.79,2.37-2.03,2.9-.38,6.7-.01,9.81,1,8.44-1.75,14.82-5.2,21.81-3.19-.55-6.37-1.02-9.57-1.21-41.72-13.03-74-56.46-65.08-106.22,4.28-23.91,18.74-43.67,37.67-55.71,18.05-11.49,36.98-13.87,56.85-14.19,19.81,1.52,38.56,5.03,55.89,17.6,18.17,13.18,31.37,33.76,34.22,57.89ZM163.73,151.06c.86-2.63,2.03-5.16,3.71-6.39,1.1-2.6,2.4-2.31,3.9.86,3.46,1.83,3.58,2.99.37,3.49-1.98,1.35-5.03,1.62-7.25,1.96-.24.04-.48.05-.72.09ZM126.17,147.74c-1.08-.25-2.17-.47-3.25-.75-1.97-.51-3.93-1.05-5.88-1.66-1.17-.34-2.34-.72-3.48-1.14,1.75-2.02,3.49-4.03,5.24-6.05,2.25-.25,5.48,5.73,7.37,9.6Z"/>
  <path class="cls-1" d="M145.91,78.11c-26.68-1.51-58.69,12.15-74.27,37.16-15.45,24.79-13.47,57.2,3.31,80.26,1,1.37,2.8-.52,1.81-1.89-16.76-23.23-17.56-56.33-.67-80.05,16.47-23.13,44.78-31.3,69.94-34.28.64-.08.49-1.17-.11-1.21Z"/>
  <path class="cls-1" d="M223.77,181.59c-4.82,16.71-14.62,30.36-27.05,41.03-1.2,1.03.31,3.39,1.56,2.39,4.66-3.7,8.96-8.18,12.8-13.2,7.29-6.06,11.85-15.68,14.76-25.03,1.85-5.97,3.03-12.14,3.92-18.35.79-5.51,2.86-12.87,1.05-18.21-.22-.65-1.04-.44-.96.26.42,3.55.28,7.45-.14,11.43.74-12.65-1.44-25.27-7.39-36.41-.06-.11-.24-.05-.21.09,4.34,18.94,7.18,36.8,1.64,56Z"/>
  <path class="cls-1" d="M207.86,195.44c8.92-12.1,17.73-30.14,12.52-45.87-.06-.19-.38-.21-.36.04,1.28,18.05-6.08,29.79-13.41,44.96-.46.95.66,1.66,1.25.86Z"/>
  <path class="cls-1" d="M184.51,141.63c-.38-4.08-3.5-7.47-6.92-8.65-.63-.22-.88.79-.3,1.06,3.16,1.54,4.86,4.41,5.78,7.97.27,1.03,1.53.63,1.43-.39Z"/>
  <path class="cls-1" d="M104.82,130.74c-.1.43.44.6.59.2,1.4-3.77,6.29-3.47,9.02-2.38,2.64,1.06,5.01,2.47,7.82,2.94.91.15,1.18-1.59.27-1.78-5.08-1.08-15.41-8.4-17.71,1.02Z"/>
  <path class="cls-1" d="M167.94,256.49c-.92,1.58-.34,3.68-.28,5.48.08,2.48.11,4.96.09,7.45-.01,1.26,1.72,1.31,1.77.05.09-2.65.04-5.31-.18-7.95-.15-1.75.02-3.81-1.2-5.06-.06-.06-.15-.06-.19.02Z"/>
  <path class="cls-1" d="M177.88,285.33c.53,5.65.83,11.92,2.27,17.37.27,1.03,1.84.98,1.79-.21-.25-5.76-1.8-11.85-2.99-17.45-.17-.79-1.15-.46-1.07.29Z"/>
  <path class="cls-1" d="M75.78,164.98c.31,1.01,1.88.66,1.61-.39-6.29-25.01,2.6-45.76,21.76-62.05.09-.08-.02-.23-.13-.18-21.64,11.79-30.36,39.75-23.25,62.62Z"/>
  <path class="cls-1" d="M180.6,85.72c-.23-.07-.4.28-.18.39,9.37,4.9,20.03,9.14,23.47,20.16.31.98,1.87.61,1.56-.38-3.45-11.26-14.31-16.9-24.86-20.17Z"/>
  <path class="cls-1" d="M168.52,286.1c-11.41,2.68-22.02,1.6-33.53,1.62-.08,0-.09.1-.02.13,10.56,4.26,23.22,2.82,34.04.28,1.31-.31.82-2.35-.5-2.04Z"/>
  <path class="cls-1" d="M174.43,46.6c1.41-9.02,2.97-17.96,4.97-26.86,1.15-5.16,5.58-14.33,3.14-19.27-.17-.35-.48-.47-.85-.46-.89.03-.84,0-1.33.77-.13.2.07.51.31.39-3.33,1.62-5.53,16.14-6.41,19.58-2.12,8.31-3.78,16.77-4.97,25.26-.47,3.31,4.63,3.88,5.15.59Z"/>
  <path class="cls-1" d="M197.96,51.98c6.63-12.08,10.48-25.1,14.14-38.28.26-.94-1.07-1.51-1.44-.57-4.9,12.67-11.2,24.83-16.41,37.38-1.02,2.44,2.52,3.64,3.71,1.46Z"/>
  <path class="cls-1" d="M209.77,65.38c6.46-9.29,11.65-19.84,17.27-29.67.73-1.27-.91-2.55-1.87-1.37-7.12,8.74-14.53,18.63-18.95,29.08-.9,2.13,2.22,3.87,3.55,1.96Z"/>
  <path class="cls-1" d="M221.54,71.16c-.39,1.09.7,2.18,1.79,1.71,4.65-2.02,8.13-7.44,11.6-11,3.72-3.81,7.64-7.51,10.98-11.67.64-.8-.46-1.62-1.2-1.14-4.91,3.12-9.27,7.18-13.48,11.17-3.3,3.14-8.12,6.55-9.69,10.93Z"/>
  <path class="cls-1" d="M235.21,86.38c3.89-1.98,6.96-5.48,10.45-8.1,4.24-3.18,8.71-6.48,13.46-8.84,1-.5.32-2.03-.71-1.58-8.36,3.57-20.19,7.89-25.11,16.15-.74,1.24.39,3.15,1.92,2.37Z"/>
  <path class="cls-1" d="M243.89,99.95c4.63-2.09,8.51-5.57,13.1-7.85,4.57-2.27,9.37-3.85,14.19-5.48.97-.33.41-1.68-.48-1.62-9.57.61-22.63,4.73-28.76,12.53-1.01,1.28.53,3.06,1.96,2.42Z"/>
  <path class="cls-1" d="M250.41,114.98c-.58.56-.23,1.7.68,1.53,3.38-.64,6.55-2.35,9.85-3.36,4.2-1.29,8.53-1.81,12.76-2.95,1.16-.31,1.34-2.15-.04-2.27-7.14-.61-17.97,1.95-23.25,7.04Z"/>
  <path class="cls-1" d="M292.7,121.08c-13.2-.84-27.12,1.46-39.21,6.84-1.02.45-.57,2.17.57,1.93,13-2.81,25.41-4.53,38.71-5.04,2.12-.08,2.03-3.6-.07-3.73Z"/>
  <path class="cls-1" d="M286.73,146.36c-8.21-2.49-17.92-1.6-26.19.2-1.23.27-.93,1.97.3,1.91,8.51-.4,16.66.85,25.1,1.08,1.74.05,2.72-2.6.8-3.19Z"/>
  <path class="cls-1" d="M281.64,165.31c-6.63-.51-14.62-.5-20.94,1.72-.7.24-.48,1.35.22,1.41,3.36.27,6.76-.21,10.13-.21,3.41,0,6.82.17,10.23.24,2.02.05,2.44-3.01.37-3.16Z"/>
  <path class="cls-1" d="M281.61,185.58c-6.91.37-14.54.43-21.32-1.08-.9-.2-1.28,1.31-.4,1.58,7.49,2.25,14.3,3.56,22.19,2.55,2.01-.26,1.47-3.16-.47-3.05Z"/>
  <path class="cls-1" d="M277.61,208.88c-7.66-2.81-15.53-5.19-23.28-7.74-.88-.29-1.31.9-.52,1.32,7.16,3.8,14.84,7.16,22.7,9.21,1.81.47,2.95-2.1,1.1-2.79Z"/>
  <path class="cls-1" d="M247.18,217.86c-.1-.05-.17.1-.09.17,3.85,3.01,7.46,6.82,11.1,10.11,3.33,3.01,6.43,6.93,10.38,9.08,1.16.63,2.51-.93,1.93-2.03-2.12-4.06-6.62-7.2-10.23-9.9-4.23-3.17-8.51-5.03-13.1-7.43Z"/>
  <path class="cls-1" d="M237.17,229.96c-.89-.85-2.22.17-1.5,1.22,5.2,7.6,11.29,16.78,18.53,22.54,1.11.89,2.95-.5,2.22-1.8-4.53-8.09-12.58-15.58-19.26-21.96Z"/>
  <path class="cls-1" d="M216.13,249.03c2.27,4.78,4.54,9.51,7.07,14.16.56,1.03,2.22.3,1.67-.75-2.46-4.71-5.12-9.25-7.83-13.82-.32-.54-1.19-.19-.91.41Z"/>
  <path class="cls-1" d="M151.43,47.45c1.19-4.3.9-9,.98-13.44.09-4.48.22-9.02-.26-13.48-.1-.91-1.37-.79-1.53.03-.89,4.63-1.12,9.4-1.39,14.1-.24,4.13-.86,8.47-.08,12.54.2,1.06,1.95,1.46,2.28.25Z"/>
  <path class="cls-1" d="M132.16,43.16c-1.53-12.25-4.3-24.3-5.63-36.65-.08-.77-1.33-.76-1.37.03-.64,12.06.11,26.02,4.31,37.42.57,1.54,2.88.74,2.69-.8Z"/>
  <path class="cls-1" d="M113.16,43.74c.5,1.23,2.47.92,2.58-.4.78-9.24-4.42-20.84-9.79-28.12-.47-.64-1.34.02-1.11.69,1.71,5.13,3.77,10.14,5.21,15.36,1.15,4.13,1.51,8.51,3.12,12.47Z"/>
  <path class="cls-1" d="M89.45,37.09c2.37,4.67,4.7,9.37,7.41,13.85,1.03,1.7,3.82.59,2.91-1.31-3.07-6.4-6.8-12.52-10.35-18.66-1.9-3.29-3.65-6.58-7.3-8.1-.63-.26-1.18.69-.59,1.06,3.87,2.44,5.88,9.14,7.92,13.16Z"/>
  <path class="cls-1" d="M83.67,59.17c1.21,1.1,2.71-.77,1.87-1.97-2.89-4.12-6.5-7.84-9.67-11.76-2.68-3.31-5.25-7.88-8.88-10.15-.17-.1-.42.01-.38.23.82,4.27,4.48,8.32,7.02,11.74,3.05,4.11,6.24,8.46,10.05,11.9Z"/>
  <path class="cls-1" d="M69.23,68.01c1.03,1.62,3.59-.05,2.82-1.74-3.32-7.33-9.7-11.96-16.62-15.56-.77-.4-1.49.9-.74,1.34,6.41,3.77,10.63,9.82,14.53,15.96Z"/>
  <path class="cls-1" d="M55.81,77.19c1.93,1.24,3.74-1.34,2.07-2.83-9.25-8.3-20.17-15.9-30.78-22.35-.96-.58-1.8.63-1.01,1.38,9.04,8.54,19.25,17.07,29.72,23.8Z"/>
  <path class="cls-1" d="M34.74,84.52c3.03,2.61,5.67,5.95,8.93,8.23,1.21.84,3.3-.5,2.42-1.96-2.09-3.45-5.73-6.23-8.93-8.61-3.1-2.31-6.59-5.09-10.44-5.93-.61-.13-1.01.71-.63,1.15,2.39,2.8,5.85,4.72,8.64,7.11Z"/>
  <path class="cls-1" d="M7.62,97.47c.22.23.51.31.81.19.12-.05.23-.09.35-.14.04-.02.04-.07.07-.1.14.61.74.9,1.82.86,1.2.46,2.39.93,3.59,1.4,2.11.79,4.23,1.51,6.37,2.22,4.57,1.52,9.13,3.12,13.78,4.43,2.29.64,3.7-2.68,1.38-3.5-5.75-2.04-11.65-3.77-17.52-5.43-2.67-.76-8.01-3.39-10.57-1.85-.53.32-.88,1.06-.38,1.6.1.11.21.22.31.33Z"/>
  <path class="cls-1" d="M27.43,124.2c2.2.47,2.54-2.96.4-3.45-8.03-1.87-16.28-3.73-24.46-4.78-1.19-.15-1.7,1.69-.52,2.07,7.98,2.57,16.39,4.41,24.58,6.16Z"/>
  <path class="cls-1" d="M.96,145.45c5.4.64,11.03.7,16.46.54,3.89-.11,8.07-.54,10.89-3.43,1.03-1.06.09-2.7-1.36-2.2-5.11,1.76-9.15,2.41-14.55,2.46-3.83.04-7.67.01-11.49.43-1.26.14-1.18,2.05.04,2.2Z"/>
  <path class="cls-1" d="M11.3,163.6c5.17-1.47,10.38-2.34,15.68-3.17,2.49-.39,1.88-4.07-.6-3.85-5.7.52-11.38,1.78-16.85,3.47-3.13.97-7.67,1.45-8.51,5.01-.02.06.03.15.08.18,3.02,1.99,7.1-.76,10.19-1.64Z"/>
  <path class="cls-1" d="M3.92,183.58c.3-.18.11-.61-.22-.5,8.46-2.87,17.9-4.41,25.81-8.93,1.21-.69.82-2.81-.74-2.51-6.04,1.15-12.02,4-17.72,6.29-2.44.98-8.24,1.94-8.75,5.04-.05.28.15.65.44.73.64.18.61.23,1.19-.12Z"/>
  <path class="cls-1" d="M28.41,190.91c-6.8,3.21-14.03,6.47-20.11,10.93-.99.73.05,1.98,1.04,1.68,7.11-2.14,13.98-5.89,20.56-9.32,2.04-1.06.64-4.29-1.48-3.29Z"/>
  <path class="cls-1" d="M34.08,208.29c-9.14,4.75-19.17,10.31-26.84,17.22-.74.66-.02,1.9.92,1.49,9.6-4.06,18.89-10.27,27.67-15.89,1.59-1.02-.07-3.7-1.74-2.82Z"/>
  <path class="cls-1" d="M43.63,224.37c-3.15.61-6.09,2.96-8.68,4.79-2.98,2.11-5.41,4.57-7.77,7.34-.1.12.06.32.2.24,2.96-1.65,5.9-3.26,8.77-5.06,2.83-1.78,6.21-3.18,8.51-5.61.65-.69-.18-1.87-1.04-1.7Z"/>
  <path class="cls-1" d="M56.74,238.89c-4.68,1.55-9.02,6-12.25,9.59-.89.99.7,2.48,1.69,1.6,1.87-1.65,3.76-3.27,5.78-4.74,1.98-1.44,4.3-2.67,6.08-4.34,1.07-1,.04-2.57-1.31-2.12Z"/>
  <path class="cls-1" d="M74.52,255.67c-4.29,3.83-7.84,9.27-11,14.04-.15.23.16.57.37.35,3.97-4.12,8.51-8.73,11.33-13.74.25-.44-.25-1.06-.69-.66Z"/>
</svg>