<?xml version="1.0" encoding="UTF-8"?>
<svg id="Layer_1" data-name="Layer 1" xmlns="http://www.w3.org/2000/svg" viewBox="0 0 374.9 457.68">
  <defs>
    <style>
      .cls-1 {
        fill: #211e1f;
      }
    </style>
  </defs>
  <path class="cls-1" d="M271.22,105.35c-5.33,71.82-7.91,145.37-5.24,217.37.09,2.54,3.83,2.54,3.95,0,3.28-72.15,3.41-145.16,2.77-217.37,0-.96-1.41-.94-1.47,0ZM12.43,324.33c7.72-69.31,40.35-135.18,83.95-189.2,41.08-50.9,93.85-91.43,159.5-101.97.19,4.35.33,8.7.15,13.07-.05,1.26,1.38,1.92,2.4,1.38,15.42-8.19,31.15-15.94,45.94-25.26.64-.4.56-1.45-.21-1.64-1.5-.38-3.01-.81-4.51-1.24-.42-.38-.95-.65-1.52-.71-.43-.04-.86-.08-1.3-.12-12.58-3.82-25.06-8.8-37.8-11.24-.04,0-.08.02-.12.02-.85-.29-1.7-.58-2.55-.87-.56-.19-.83.61-.38.91,1.3.87-.52,16.98-.45,18.4.02.32.03.63.04.94-68.49,8.33-125.24,54.29-166.16,107.54-21.55,28.04-40.06,58.5-54.67,90.72-6.86,15.13-13.06,30.65-18.03,46.51-2.47,7.88-4.64,15.97-5.9,24.13-.85,5.49-1.32,11.11-1.21,16.66,0,2.4.16,4.79.46,7.18-.02.59.39.73,1.07.61l-.02.02c0,1.39.01,2.78.02,4.17,0,.85,1.2.81,1.29,0ZM284.1,23.16c-.04-.24-.1-.51-.15-.75.39.04.79.07,1.18.11-.34.22-.69.42-1.04.64ZM289.13,22.89c-.21.11-.42.21-.64.31-.08-.15-.2-.27-.3-.4.31.03.62.06.94.09ZM285.86,17.61c-1.77-.16-3.55-.33-5.32-.5-.14-.01-.26.07-.39.08-.06-.28-.14-.54-.19-.82,1.29.29,3.45.72,5.89,1.24ZM278.35,25.77c.14.22.3.45.45.67-.22.14-.43.27-.65.4.07-.36.14-.71.2-1.07ZM272.08,14.23c-.09.12-.14.27-.21.4,0-.18-.02-.32-.04-.48.09.02.17.05.26.07ZM272.47,28.12c.1.69.14,1.37.26,2.06-.38.23-.76.45-1.14.67.3-.91.59-1.82.89-2.73ZM271.13,37.52c-4.55,2.33-8.64,4.41-11.31,5.78.21-1.24.35-2.48.43-3.72.42,1.39,1.95,2.3,3.42,1.46,2.24-1.29,4.46-2.62,6.68-3.94.23.19.49.33.77.42ZM260.33,32.4c.37-.05.68-.19.95-.36-.29,1.63-.54,3.27-.87,4.9.02-1.51,0-3.02-.08-4.54ZM260.07,10.07c1.24.55,2.49,1.1,3.77,1.57-.68.58-1.26,1.33-1.19,2.04-.27-.16-.56-.26-.89-.24-.62.02-.61.9,0,.96.08,0,.13.09.19.16-1.85.37-2.91,3.11-.82,4.3.25.14.49.28.74.42.16.09.35.09.53.14-.02.61-.05,1.26-.08,1.93-.2,1.97-.38,3.94-.57,5.91-.43-.54-1.05-.88-1.81-.93-.41-5.4-.75-10.83.13-16.24ZM327.33,159.79c-3.44,23.76-5.07,47.97-6.18,71.94-.09,1.94,2.82,1.89,2.99,0,2.19-23.8,3.92-47.95,3.78-71.86,0-.32-.54-.42-.59-.08ZM277.21,80.4c7.2-3,13.42-7.78,19.31-12.75.05-.05-.02-.13-.07-.1-6.46,4.03-13.43,7.22-19.99,11.06-.92.54-.3,2.22.75,1.78ZM57.2,211.49c-.58,1.52,1.83,2.15,2.42.67,6.33-15.93,15.81-29.1,26.49-42.38.11-.14-.06-.31-.2-.2-13.44,10.73-22.6,26-28.71,41.91ZM293.08,77.66c2.91-2.9,6.27-5.33,9.05-8.34.02-.03,0-.08-.04-.07-4.01,1.36-7.3,4.21-10.39,7.02-.93.84.49,2.27,1.38,1.38ZM301.68,77.32c2.44-2.18,4.94-4.55,7.78-6.21.08-.05.03-.18-.06-.15-3.42,1.18-6.35,2.5-8.9,5.17-.75.79.38,1.9,1.18,1.18ZM374.23,73.86c-.09-.18-.31-.24-.47-.36-.21-.78-.8-1.47-1.81-1.57-25.48-2.54-50.15-10.79-75.65-12.66.08-.1.18-.18.27-.27.35-.4,0-.9-.48-.83-8.14,1.11-16.2,7.46-23.06,11.79-7.32,4.62-14.95,9.24-21.42,15.02-1.35,1.2.39,3.36,1.91,2.47.37-.22.73-.46,1.1-.69-2.03,15.46-1.34,31.74-1.68,47.2-.36,15.92-.67,31.85-.99,47.77-.07-.02-.1-.08-.17-.08-.97,0-.98,1.52,0,1.52.07,0,.09-.05.15-.06-.19,9.33-.41,18.65-.58,27.98-.68,36.69-2.07,73.64-1.02,110.39-.25-3.28-.55-6.52-.68-9.61-.47-11.37-.94-22.74-1.41-34.12-1.02-24.92-1.98-49.84-3.13-74.75-1.07-23.16-.56-47.06-4.02-69.98-.08-.51-.51-.63-.91-.51-.06-.91-.6-1.77-1.74-2.09-12.62-3.57-24.89-6.7-36.9-12.11-4.01-1.81-7.99-3.77-12.19-5.1-2.96-.93-8.96-1.06-12-2.53-.57-.8-1.79-1.24-2.79-.43-13.93,11.35-27.79,23.13-40.62,35.71-.64.63-.17,1.67.53,1.89-1.32,16.44.26,33.43,1,49.88.65,14.51.41,29.61,2.98,43.96-14.98-5.55-31.18-12.68-46.77-14.19-.01-.08.05-.16,0-.23-.24-.31-.48-.62-.71-.93-.35-.45-.84-.75-1.43-.58-6.98,1.99-14.25,9.55-19.65,14.25-7.65,6.66-15.04,13.94-21.27,21.95-1.25,1.61.85,3.9,2.31,2.31.2-.22.4-.43.59-.65.01,0,.02,0,.04,0,.16,19.06,7.15,39.92,10.99,58.37,3.83,18.42,7.24,37.16,11.86,55.46-.39-.27-.89-.34-1.32.14-1.73,1.93-3.59,3.71-5.36,5.59-10.42,6.07-19.6,14.61-29.59,21.45-8.61,5.89-18.28,10.76-26.34,17.34-.44.36-.5,1-.4,1.51.12.59.24,1.17.36,1.76.08.39.57.46.83.22.08-.07.17-.14.25-.21.19.21.41.41.7.56,11.19,5.59,22.88,10.27,34.34,15.26,6.79,2.96,17.37,10.36,25.27,9.25,6.99-.98,14.56-9.44,19.59-13.76,4.29-3.69,8.73-7.51,12.85-11.61.1-.04.19-.03.29-.08.77-.39,1.54-.77,2.31-1.16.42,1.78,2.4,3.27,4.25,2.01.03-.02.07-.05.1-.07,11.09,4.23,22.15,8.57,33.3,12.66,7.69,2.82,11.83,4.23,18.97.1,5.2-3.01,10.3-6.29,15.36-9.71,1.19.55,2.66.45,3.97-.79,2.73-2.59,5.46-5.17,8.2-7.76,2.7-1.97,5.4-3.95,8.08-5.96,9.96,1.54,19.83,3.47,29.57,6.06,8.83,2.34,20.07,8.91,29.04,9.22,6.19.21,9.2-3.35,13.6-7.44,5.2-4.84,10.16-9.89,15.04-15.03,1.04.39,2.27.34,3.36-.53,8.25-6.6,16.04-13.67,23.64-20.97,7.03-5.8,14.23-11.39,21.67-16.69,8.43-6.01,23.78-11.68,23.83-23.77,0-1.86-1.24-2.88-2.66-3.14,3.34-44.21,5.54-88.52,7.73-132.8,1.33-26.85,2.49-53.71,3.48-80.57.39-10.5.75-21.01.98-31.51.12-5.67.83-11.9-.83-17.41,2.33-1.67,4.39-2.88,5.03-2.37.26.21.66.16.77-.2.44-1.55.33-1.69-.4-3.16ZM253.73,367.2c-.25.35-.53.72-.8,1.08-.01-.06-.03-.12-.05-.18.28-.3.56-.6.84-.89ZM250.64,330.83c.1,2.4.21,4.8.33,7.2-.29-.02-.59.04-.85.25-.16.13-.3.29-.46.42.61-2.55.91-5.18.98-7.87ZM251.1,340.9s0,.09,0,.13c-.03.12-.02.24.02.36.02.33.03.65.04.98.02.44.23.74.48.98-.52.53-1.02,1.08-1.54,1.61-.3-.34-.67-.62-1.09-.81.71-1.07,1.42-2.14,2.08-3.24ZM69.01,245.32c2.85-2.64,5.76-5.22,8.73-7.71,2.5-2.1,6.68-6.71,10.51-8.55,18.48,5.41,36.64,12.46,54.9,18.62-6.73,3.32-12.71,7.74-18.54,12.54-3.98,3.27-7.76,6.74-11.57,10.21-2,1.83-4.13,3.33-5.61,5.36-10.03-4.6-21.76-6.02-32.38-9.01-6.43-1.81-14.4-5.85-21.47-5.42,5-5.48,9.97-10.96,15.43-16.02ZM75.3,381.04c.21.81.41,1.62.63,2.43-.71-.27-1.42-.55-2.13-.82.5-.54,1.01-1.06,1.51-1.61ZM68.17,388.5c-.06.25-.12.5-.2.75-.15-.04-.28-.09-.43-.13.21-.21.42-.41.63-.62ZM61.95,394.46c.38-.35.78-.69,1.15-1.04.05.1.14.19.21.29-.56.39-1.14.77-1.71,1.16.12-.13.23-.27.35-.4ZM18.74,422.35c-.51-.21-1.02-.42-1.53-.62,4.1-2.98,8.67-5.62,13.26-8.19-3.56,2.57-7.12,5.15-10.79,7.59-.5.33-.78.77-.94,1.23ZM23.83,424.55c-.08-.04-.17-.08-.25-.11.11-.07.22-.13.33-.19-.02.1-.07.2-.08.31ZM45.34,428.7c.32-.12.64-.21.95-.36.02.31.08.61.21.9-.39-.17-.77-.37-1.15-.54ZM39.49,423.91c-.7.52-1.01,1.21-1.13,1.92-3.38-1.39-6.74-2.82-10.18-4.09,5.91-3.46,11.77-6.98,17.59-10.57.04-.02.09-.01.13-.03.35-.16.68-.35,1.03-.52-1.75,1.33-3.46,2.69-5.25,3.98-2.78,2.04-.11,6.73,2.74,4.68,1.41-1.03,2.82-2.06,4.24-3.08.2.19.43.36.69.48-3.28,2.41-6.57,4.82-9.85,7.23ZM57.31,432.85c-.13.5-.12,1.01.02,1.5-2.39-1.18-4.81-2.29-7.22-3.4.13-.06.27-.07.4-.15,5.31-3.33,10.35-6.94,15.22-10.74-2.43,3.61-5.73,7.05-8.22,10.41-.62.84-.58,1.69-.2,2.38ZM65.98,436.25c-.21.17-.32.38-.45.58-1.47-.19-2.95-.46-4.44-.82.04-.02.07-.02.1-.04,1.78-1.22,3.64-2.31,5.44-3.49,3.33-1.34,6.31-3.06,8.72-5.6,1.16-.72,2.29-1.49,3.46-2.19-4.17,3.95-8.43,7.82-12.83,11.55ZM76.04,392.08c.58-.59,1.17-1.18,1.74-1.78.23.09.45.17.68.26.58.35,1.18.65,1.77.97-.94.37-1.85.79-2.78,1.18-.47-.21-.94-.44-1.42-.64ZM81.17,434.23c-1.89,1.1-3.88,1.84-5.95,2.3l10.53-7.51c1.32-.94,2.84-2.2,4.47-3.51-2.98,2.94-6.02,5.83-9.05,8.72ZM80.82,417.26c1-.89,2.04-1.74,3.05-2.62.41.18.87.22,1.35.14-1.47.82-2.94,1.64-4.39,2.48ZM87.42,395.13c.1-.07.2-.15.3-.22.32.12.63.26.95.38-.41-.07-.84-.1-1.25-.16ZM97.58,412.93c-.03-.06-.07-.1-.1-.16.02-.48-.1-.93-.3-1.36,1.04.06,2.07.12,3.11.18-.89.47-1.78.93-2.71,1.33ZM105.79,418.04s.03-.03.04-.04h0s.03-.02.05-.02c-.03.02-.06.04-.09.06ZM108.15,406.51c-.04-.55-.19-1.08-.5-1.56.17-.45.27-.91.26-1.38,2.14,1.2,4.29,2.36,6.47,3.48-2.08-.18-4.15-.35-6.23-.53ZM121.55,420.49c-.48-.07-.97-.13-1.45-.2.5-.35,1-.71,1.5-1.06-.1.42-.13.84-.05,1.26ZM122.44,403.69c-13.47-6.64-27.18-12.68-41.15-18.15-.08-1.12-1.01-2.04-2.15-2.28-3.57-20.84-8.84-41.53-13.11-62.23-3.77-18.27-5.3-39.37-11.98-56.97,8.06,1.7,16.17,5.61,23.95,7.86,9.31,2.7,18.87,4.53,28.12,7.37.18.19.43.3.71.24,6.55-1.26,12.63-9.63,17.42-14.03,6.3-5.78,12.84-10.73,20.3-14.71,1.56,40.55,7.93,82.28,14.32,122.26-7.11,5.28-13.9,10.8-20.5,16.73-4.6,4.12-11.57,8.59-15.93,13.92ZM144.56,389.4c-3.07,3.07-6.15,6.13-9.22,9.2-.49.3-.95.58-1.36.83-.06.04-.12.07-.18.1,1.73-1.76,3.4-3.49,5.01-4.94,1.92-1.72,3.84-3.46,5.75-5.2ZM140.07,423.9c1.58-1.21,3.16-2.42,4.74-3.64-1.85,1.68-.56,4.53,1.38,5.25-1.83-.81-3.93-1.16-6.11-1.61ZM134.84,420.2c-.78.7-.95,1.62-.8,2.5-2.12-.43-4.24-.88-6.37-1.24,6.12-3.95,12.31-7.78,18.56-11.48-3.8,3.41-7.6,6.81-11.4,10.22ZM154.61,429.08c-1.22.44-2.51.63-3.85.56,1.71-1.44,3.48-2.74,5.33-3.91-.49,1.12-.99,2.23-1.48,3.35ZM158.26,377.52s.04-.03.05-.04c.04.03.08.05.12.08-.06-.01-.12-.02-.17-.03ZM158.64,434.1c.6-.36,1.17-.78,1.73-1.22.15.22.32.4.52.57-.77.27-1.53.5-2.25.65ZM168.13,429.06c.1-.14.19-.28.29-.42.05.02.09.06.14.08-.14.11-.28.23-.43.34ZM172.99,410.81c-1.01,1.2-2.02,2.38-3.02,3.58-.68.81-.94,1.64-.98,2.43-.16.23-.32.47-.48.7-.1.09-.2.17-.29.25-1.26,1.12-2.53,2.43-3.83,3.76.13-.3.27-.61.4-.91.53-1.22.34-2.36-.25-3.18,2.44-2.05,4.88-4.1,7.32-6.15.6-.5,1.22-1.06,1.84-1.6-.24.37-.47.75-.72,1.12ZM166.9,391.38c.69-.62,1.38-1.26,2.06-1.89-.03.47,0,.92.1,1.35-.56-.06-1.14-.01-1.71.29-.15.08-.3.17-.45.25ZM172.33,384.7c-.41-1.82-2.8-3.2-4.63-1.53-.11.1-.23.19-.34.29-.32-1.09-1.44-1.83-2.66-1.9.23-.45.45-.9.63-1.36,3.31,1.23,6.61,2.47,9.96,3.62-1.09.18-2.09.46-2.95.87ZM181.43,392.38c-.15-.05-.3-.1-.44-.14.22-.37.36-.75.42-1.16.45.04.94.1,1.49.16-.49.39-.98.76-1.47,1.15ZM185.01,382.78c-2.04-.7-4.08-1.39-6.11-2.09,0-.04,0-.07,0-.11,2.17.65,4.33,1.32,6.47,2-.12.06-.24.13-.36.2ZM196.93,392.9s.02-.08.03-.12h.11s-.09.08-.13.12ZM208.32,408.22c.91-.68,1.81-1.37,2.72-2.05l2.95.84c.08.57.31,1.1.69,1.55-2.12-.13-4.23-.25-6.35-.33ZM220.88,383.04c.06-.09.12-.17.18-.26.16-.12.32-.24.47-.37-.22.2-.43.42-.65.62ZM226.59,386.21c-.02-.13.01-.28-.05-.38.27-.28.54-.57.81-.85-.18.33-.37.65-.54.98-.07.08-.14.17-.21.25ZM227.44,397.61s-.08-.07-.12-.1c.21-.05.42-.18.63-.28-.17.12-.34.26-.52.38ZM228.95,362.02c-4.16,5.26-8.37,10.61-12.14,16.21-.67.6-1.29,1.25-1.96,1.84-.97.85-2.39,2.05-3.57,3.36-8.44-1.45-16.08-3.53-24.27-6.16-6.89-2.22-13.96-4.64-21.24-4.85-.36-.17-.71-.34-1.07-.52-.74-.36-1.59-.34-2.38-.14-.08-.08-.17-.13-.26-.18-5.37-40.45-9.19-81.52-15.66-121.78.41-.21.79-.45,1.21-.65,1.64-.78.5-3.63-1.19-3.04.04-.85-.35-1.73-1.37-2.07-1.16-.39-2.35-.84-3.53-1.26,1.21-16.51-1.08-33.62-1.86-50.14-.72-15.29-.52-30.99-2.82-46.12,0,0,0,0,0,0,13.93-10.53,27.3-22.04,40.26-33.73.14-.13.21-.27.3-.4,6.4,6.32,17.44,8.32,25.47,11.98,10.92,4.98,22.67,7.79,34.25,10.82,1.01.26,1.8-.09,2.34-.68-1.43,22.59.92,45.9,1.7,68.5.77,22.43,1.71,44.85,2.6,67.27.42,10.64.84,21.29,1.27,31.93.43,10.78,3.1,24.65.63,35.29-.7,3-2.09,5.93-3.79,8.78-4.59,5.05-8.83,10.58-12.9,15.75ZM249.49,371.7c.28.07.52.06.77.06-2.19,2.75-4.59,5.58-6.98,8.3-.36.06-.71.16-1.04.38-.88.58-1.75,1.17-2.63,1.75,3.28-3.5,6.6-6.97,9.87-10.49ZM248.79,419.55c-2.6-.88-5.24-1.66-7.86-2.46.85-.16,1.54-.61,2-1.23,2.14.72,4.27,1.32,6.32,1.67-.08.89.15,1.74.62,2.41-.37-.13-.69-.26-1.09-.39ZM251.99,398.83c-.99-.31-2.14-.21-3.22.66-.11.09-.21.17-.32.26-.04-.23-.08-.46-.17-.67,2.23-1.44,4.39-2.97,6.49-4.6-.7.75-1.33,1.54-2.07,2.28-.62.65-.8,1.38-.71,2.07ZM253.27,421.19c.27-.07.53-.16.8-.31.49-.28.99-.57,1.48-.85.14.57.4,1.12.77,1.5.27.28.53.47.79.71-1.24-.17-2.47-.54-3.85-1.04ZM263.13,418.03c.09-.12.09-.26.15-.39.03.03.04.07.07.1-.07.1-.15.19-.22.29ZM266.97,405.94s0,0-.01,0c.02-.03.04-.06.06-.09-.02.03-.03.06-.05.09ZM271.55,386.86c-3.66,3.26-7.31,6.51-10.97,9.77.05-.13.09-.26.14-.39,4.23-4.28,8.54-8.47,12.95-12.57-.73,1.05-1.4,2.13-2.12,3.19ZM264.28,352.05c-.88-.56-1.75-1.18-2.62-1.82.24-.55.32-1.13.22-1.7,1.13.63,2.25,1.26,3.4,1.86-.5.4-.84.99-1,1.65ZM265.95,360.44c-.16.2-.34.39-.5.58l-1.43.55c-.09.03-.14.09-.21.14.28-.71.51-1.43.59-2.17.52.3,1.03.61,1.56.9ZM262.75,364.17c-.32.36-.62.74-.95,1.1.33-.47.63-.94.91-1.4.01.1.01.2.04.3ZM272.24,364.75c-1.13,1.14-2.28,2.24-3.42,3.36-.84.59-1.64,1.26-2.41,2.09.32-.58.62-1.18.93-1.77,1.4-1.76,2.81-3.52,4.22-5.29.24.1.46.22.71.32.49.19.99.35,1.49.52-.53.1-1.06.3-1.51.76ZM277,365.38c-.13-.19-.3-.34-.47-.51.24.07.48.14.72.21-.08.1-.17.2-.25.29ZM281.19,371.24s.05-.02.07-.03c0,.01.01.02.02.03-.03,0-.06,0-.09,0ZM307.9,374.75c.06-.04.11-.09.16-.13,2.06-1.3,2.86-.11,4.37-1.15-1.04.83-2.06,1.66-3.07,2.53-.38-.54-.87-.98-1.47-1.25ZM312.03,376.97c1.23-1.47,2.48-2.92,3.65-4.43.42-.54-.14-1.57-.82-1.06-.67.5-1.28,1.07-1.93,1.59.17-.16.34-.3.53-.53.53-.61.68-1.33.61-2.02,1.84.43,3.67.74,5.49.96-2.53,1.8-5.03,3.64-7.53,5.49ZM323.34,368.65c-9.7-6.21-22.54-8.74-33.19-13-11.96-4.78-23.55-10.77-35.88-14.56-.88-42.76.21-85.65.79-128.41.34-25.34.75-50.67,1.19-76,.29-16.67,1.87-34.27.13-50.96.24.08.5.1.79-.04,2.48-1.23,13.25,2.85,16.02,3.27,7.87,1.19,15.81,2,23.7,2.95,14.8,1.78,29.6,3.45,44.45,4.79-.3.14-.56.37-.61.81-.85,8.99-1.61,17.99-2.33,27-.27.33-.54.66-.68,1.07-.02.06.02.13.08.15.16.05.33,0,.49.02-.32,3.99-.62,7.97-.92,11.96-.14.14-.29.28-.43.42-.28.28.05.62.36.52-.18,2.4-.37,4.81-.55,7.21-.39.35-.79.66-1.18,1.02-.23.21.06.53.31.41.27-.13.52-.28.79-.42-1.76,23.71-3.37,47.44-5.25,71.12-3.97,50.03-8,100.23-7.9,150.45-.08.07-.12.15-.18.23ZM366.04,97c-.31,10.51-.76,21.01-1.23,31.51-1.2,26.86-2.67,53.72-4.11,80.57-2.38,44.42-4.41,88.89-7.48,133.27-.04.56.14.98.4,1.31-4.83,3.03-8.98,7.5-13.26,11.16-4.21,3.59-8.58,6.97-12.89,10.41.07-6.73.2-13.45.38-20.18,3.27-3.11,7.61-5.69,11.76-7.23,2.06-.76,1.14-4.1-.91-3.31-4.64,1.81-7.97,4.48-10.77,8.19.07-2.47.14-4.94.23-7.41.23.22.58.36.93.31,1.99-.28,3.68-1.59,5.47-2.46,1.98-.96,3.98-1.81,5.85-2.96,1.24-.76.38-2.43-.94-2.22-2.33.36-4.46,1.29-6.52,2.42-1.75.96-3.62,1.89-4.74,3.56.11-3.18.25-6.36.38-9.54,2.24-.57,4.31-2.35,6.27-3.48,2.88-1.66,5.83-3.21,8.8-4.69,1.63-.81.2-3.26-1.43-2.44-2.98,1.49-5.86,3.11-8.67,4.91-1.5.96-3.44,1.95-4.86,3.26.11-2.39.2-4.77.32-7.15.03-.02.06,0,.1-.02,4.4-3.13,9.09-5.69,13.85-8.2,1.22-.64.38-2.73-.95-2.26-5.08,1.78-9.38,4.94-12.93,8.9.18-3.57.38-7.14.58-10.72,3.91-2.21,7.93-4.34,11.95-6.27,1.31-.63.16-2.64-1.15-1.96-2.48,1.28-4.93,2.63-7.27,4.16-1.27.83-2.37,1.72-3.45,2.64.21-3.71.41-7.41.64-11.12,2.27-.95,4.43-2.2,6.59-3.36,2.55-1.38,5.28-2.58,7.34-4.66.74-.75-.01-1.98-1.01-1.73-2.84.71-5.28,2.46-7.76,3.94-1.67,1-3.36,1.99-4.99,3.06.2-3.16.39-6.33.6-9.49.17.05.35.08.56,0,3.67-1.45,6.8-4.16,10.01-6.42,2.91-2.05,6.31-3.86,8.45-6.75.49-.66-.32-1.56-1.04-1.35-3.51,1.05-6.51,3.82-9.48,5.91-2.81,1.98-5.95,3.81-8.36,6.3.29-4.4.6-8.81.9-13.21,4.01-2.01,7.98-4.03,11.8-6.41.83-.52.1-1.75-.76-1.31-3.79,1.94-7.37,4.18-10.95,6.46.2-2.81.39-5.62.59-8.43,2.6-.84,5.15-2.33,7.35-3.77,2.43-1.59,5.63-3.58,7.02-6.2.26-.49-.17-1.14-.74-.97-2.95.86-5.62,3.34-8.15,5.05-1.73,1.17-3.57,2.35-5.31,3.62.27-3.72.53-7.44.8-11.16,5.55-2.83,11.27-5.67,16.5-8.91.84-.52.31-1.94-.69-1.64-5.37,1.62-10.85,4.67-15.63,8.07.21-2.9.42-5.79.63-8.69,4.89-1.86,9.65-4.84,13.92-7.67.99-.66.14-2.08-.92-1.58-4.29,2.02-8.9,4.34-12.84,7.22.19-2.64.38-5.28.57-7.92l.03-.37c5.99-2.79,12.16-5.91,17.15-10.16.5-.43-.03-1.29-.64-1.1-5.72,1.82-11.16,5.01-16.29,8.32.2-2.84.42-5.68.62-8.52,3.43-2.69,7.13-5,11.07-6.9,1.08-.52.13-2.16-.95-1.62-3.73,1.87-7,4.32-10.02,7.14.27-3.69.54-7.38.81-11.07,3.88-2.27,7.55-4.89,11.62-6.91,1.43-.71.4-3.26-1.11-2.62-3.59,1.51-7.39,3.66-10.3,6.5.22-2.98.43-5.96.66-8.94,1.49-.54,3-1.69,4.25-2.33,2.35-1.2,4.76-2.26,7.18-3.33,1.52-.67.42-3.03-1.11-2.62-2.7.71-5.26,1.8-7.64,3.26-.7.42-1.58.96-2.42,1.55.22-2.95.43-5.91.65-8.86,4.3-1.95,8.28-4.4,12.37-6.87,1.43-.86.13-3.09-1.31-2.24-3.74,2.23-7.44,4.35-10.9,6.88.16-2.17.32-4.33.48-6.5,2.77-1.4,5.22-3.57,7.77-5.32,2.78-1.9,5.79-3.48,8.51-5.45,1.69-1.22.27-3.65-1.63-2.79-3.38,1.53-6.53,3.87-9.54,6.04-1.63,1.17-3.32,2.38-4.83,3.75.27-3.66.54-7.33.81-10.99.03-.42.07-.85.1-1.27,1.39-.82,2.76-1.68,4.14-2.6,2.57-1.72,5.52-3.26,7.61-5.56.46-.51.02-1.55-.74-1.27-3.08,1.17-5.74,3.49-8.43,5.37-.83.58-1.61,1.19-2.4,1.79.17-2.25.35-4.51.53-6.77,3.74-2.59,7.62-5.04,10.98-8.08.53-.48-.14-1.15-.7-.91-3.84,1.66-7.08,4.24-10.12,7.02.24-3,.45-6.01.65-9.01.54-.29,1.06-.57,1.54-.81,2.68-1.33,5.48-2.67,7.96-4.33.93-.62.37-2.39-.81-1.93-2.74,1.06-5.35,2.54-7.93,3.93-.17.09-.37.19-.55.28.13-2.09.17-4.18.25-6.27,5.41-2.49,10.31-6.52,14.48-10.7,1.12-1.12-.55-2.73-1.72-1.72-4.11,3.53-8.5,6.71-12.67,10.16.16-5.15.2-10.3-.09-15.41.57.38,1.29.5,1.95.03,5.28-3.7,10.44-7.59,15.6-11.45.7-.52,3.69-3.13,6.7-5.46-1.1,5.19-.79,10.79-.94,16.04ZM343.95,93.55c-17.23-2.43-34.51-4.37-51.81-6.25-4.74-.52-9.49-.97-14.22-1.5-5.24-.58-12.53-3.58-17.24-2.9,5.21-3.49,10.31-7.2,15.63-10.52,5.63-3.52,12.65-6.47,17.77-10.92,24.72,5.14,49.54,11.28,74.65,14.08-8.51,5.61-16.74,11.78-24.79,18.01ZM301.54,13.74c.86.27,1.49-1.12.63-1.49-9.02-3.9-18.36-6.98-27.79-9.68-.25-.07-.44.32-.18.44,8.91,4.08,17.97,7.84,27.34,10.73ZM290.73,1.51c3.28,1.13,6.74,2.1,10.13,2.81,1.35.28,1.92-1.69.57-2.08-3.34-.95-6.86-1.7-10.29-2.23-.97-.15-1.38,1.17-.41,1.5ZM131.75,80.27c14.01-17.31,30.48-30.03,50.79-39.15.14-.07.04-.31-.11-.26-20.45,7.37-38.83,21.1-51.72,38.61-.44.6.57,1.38,1.03.8ZM216.71,263c-3.22,1.83-6,4.48-8.88,6.81-.6.49.17,1.46.82,1.06,3.17-1.94,6.59-3.68,9.41-6.12.98-.84-.28-2.37-1.35-1.75ZM84.06,259.4c-1.73,1.32-3.35,2.68-4.95,4.15-.1.09.03.26.15.19,1.84-1.09,3.58-2.22,5.31-3.48.52-.38,0-1.25-.5-.86ZM153.43,167.73c-2.1,43.41,3.05,87.46,5.5,130.78.08,1.4,2.24,1.42,2.19,0-1.62-43.43-.65-87.8-6.79-130.9-.07-.53-.88-.37-.9.12ZM136.17,372.77c-3.09.3-5.69,2.41-8.02,4.34-2.16,1.79-4.06,3.86-5.73,6.11-.38-2.72-.79-5.45-1.2-8.17,4.64-3.39,9.46-6.36,14.21-9.61.59-.4.24-1.43-.51-1.2-5.14,1.56-10.06,4.94-14,8.76-.51-3.36-1.04-6.72-1.57-10.08.05-.02.1,0,.16-.04,4.87-3.49,10.57-5.9,15.3-9.54.7-.54.3-1.56-.6-1.42-5.93.92-11.1,5.28-15.09,9.55-.56-3.57-1.1-7.13-1.64-10.69,2.56-1.79,5.12-3.57,7.67-5.39,2.59-1.85,5.48-3.54,7.73-5.79.62-.63-.16-1.57-.92-1.19-2.94,1.49-5.57,3.84-8.23,5.8-2.18,1.61-4.35,3.25-6.51,4.88-.17-1.13-.35-2.25-.51-3.38-.43-2.94-.83-5.89-1.22-8.84,5.09-4.06,10.05-7.88,15.92-10.84,1.72-.87.21-3.31-1.49-2.55-5.68,2.57-11.06,6.58-14.64,11.79-.44-3.31-.88-6.63-1.34-9.95,2.64-1.39,5.07-3.47,7.35-5.34,2.79-2.3,5.67-4.73,7.99-7.51.96-1.14-.57-2.74-1.66-1.66-2.47,2.44-4.72,5.09-7.26,7.48-2.12,1.99-4.49,3.8-6.6,5.81-.54-3.84-1.11-7.68-1.75-11.5.33.31.8.48,1.29.2,2.67-1.57,5.13-3.66,7.33-5.82,1.95-1.92,4.66-4.17,5.5-6.83.32-1.03-.89-1.9-1.79-1.37-2.32,1.36-3.97,4.14-5.87,6.04-2.13,2.13-4.4,4.09-6.55,6.19-.09.08-.07.18-.12.28-.62-3.62-1.33-7.23-2.11-10.81,1.89-.52,3.84-3.15,5.1-4.27,2.72-2.41,5.6-4.72,8.11-7.35.85-.9-.4-2.06-1.32-1.32-2.18,1.72-4.14,3.72-6.16,5.62-1.01.95-2.03,1.9-3.04,2.85-.6.57-2.37,1.8-3.07,2.69-.6-2.62-1.23-5.24-1.95-7.83-.02-.09-.16-.07-.16.02-.18,17.11,2.7,34.13,5.13,51.05,2.63,18.36,4.82,37.01,8.69,55.15.36,1.68,3.24,1.34,3.05-.41-.35-3.36-.79-6.73-1.23-10.09.21-.06.42-.08.59-.27,2.12-2.32,4.28-4.6,6.79-6.49,2.2-1.66,4.99-2.83,6.83-4.89.65-.73.28-2.26-.89-2.14ZM185.39,153.23c6.52-3.64,12.87-7.68,18.94-12.03,1.23-.88.12-2.9-1.21-2.07-6.38,4.03-12.57,8.44-18.45,13.15-.54.43.15,1.26.72.94ZM194.53,156.16c5-3.2,9.92-6.5,14.96-9.63,4.48-2.77,9.3-5.17,13.36-8.53.41-.34-.03-1.07-.52-.9-10.18,3.58-20.12,10.94-28.96,17.06-1.21.84-.1,2.81,1.17,2ZM67.26,280.51c3.48,32.88,11.21,66.34,18.2,98.65.38,1.78,2.98,1,2.69-.74-5.39-32.5-10.5-66.39-19.37-98.11-.23-.81-1.62-.69-1.53.21ZM175.75,151.66c1.49-1.41,3.45-2.48,5.31-3.29,1.02-.45.26-1.91-.72-1.71-2.66.54-4.24,2.04-5.31,4.45-.2.46.32.94.72.56ZM214.21,244.59c-3.17,1.86-5.89,4-8.26,6.81-.55.65.19,1.87.99,1.28,2.8-2.05,5.57-4.15,8.42-6.13,1.18-.82.13-2.71-1.15-1.96ZM79.73,256.45c2.46-2.03,5.2-3.68,7.63-5.72.77-.64-.21-1.63-.99-1.28-2.84,1.26-5.33,3.29-7.71,5.27-2.18,1.82-5.29,4-6.43,6.65-.25.57.27,1.19.87.87,2.49-1.29,4.44-3.99,6.63-5.79ZM95.82,235.96c1.03-.82-.28-2.23-1.33-1.72-5.53,2.7-10.35,7.01-15.02,10.96-4.98,4.2-11.2,8.33-15.31,13.34-.42.51-.04,1.57.74,1.27,5.39-2.13,9.9-6.9,14.24-10.63,5.4-4.65,11.13-8.78,16.68-13.21ZM225.13,321.14c-4.6,1.38-9.82,4.67-13.75,8.31-.15-2.22-.28-4.43-.43-6.65,3.7-3.25,8.41-5.13,12.88-7.06,1.58-.68.42-3.07-1.14-2.7-4.93,1.18-8.56,4.21-11.87,7.81-.14-1.97-.27-3.95-.41-5.92,3.82-2.39,7.42-5.26,10.9-8.02.98-.78-.29-2.38-1.33-1.72-3.28,2.07-6.66,4.23-9.81,6.62-.27-3.64-.55-7.28-.84-10.92,4.49-3.34,9.39-6.07,13.82-9.47.95-.73.48-2.64-.91-2.15-4.8,1.69-9.18,4.86-13.17,8.18-.19-2.35-.36-4.71-.55-7.07.15.22.44.34.72.19,2.53-1.38,4.64-3.42,7.06-4.99,2.26-1.46,4.62-2.72,6.69-4.45.67-.56-.07-1.52-.8-1.36-2.89.62-5.35,2.21-7.68,3.99-2.27,1.73-4.62,3.53-6.04,6.05h0c-.22-2.66-.44-5.33-.66-7.99,2.55-.96,4.9-2.95,7.15-4.43,2.24-1.47,4.96-2.82,6.49-5.08.5-.74-.32-1.57-1.08-1.41-2.69.59-5.05,2.76-7.27,4.32-1.75,1.22-3.85,2.37-5.51,3.83-.49-5.89-.97-11.78-1.47-17.68.3.09.63.06.96-.13,4.34-2.6,9.03-5.9,12.6-9.51,1.13-1.15-.31-3.02-1.71-2.22-4.25,2.4-8.49,5.9-12.06,9.29-.77-9.13-1.52-18.26-2.26-27.39,4.11-2.65,8.6-5.11,12.31-8.28.66-.56-.18-1.46-.87-1.13-4.05,1.93-7.84,4.74-11.61,7.26-.3-3.67-.59-7.34-.88-11.01,3.32-1.59,6.43-3.64,9.41-5.78,1-.72.12-2.33-.99-1.69-2.98,1.73-5.88,3.62-8.56,5.78-.22-2.84-.41-5.68-.62-8.52,1.32-.82,2.58-1.75,3.91-2.53,1.87-1.09,3.85-1.94,5.71-3.07.9-.55.28-1.82-.69-1.64-2.94.54-6.55,2.24-9.12,4.52-.26-3.57-.51-7.14-.75-10.72.36.12.77.14,1.09-.12,3.27-2.68,6.64-4.83,10.59-6.37,1.43-.56.91-2.71-.65-2.34-4.39,1.02-8.34,3.45-11.17,6.96-.2-3.03-.39-6.06-.57-9.09,5.72-3.23,11.45-6.65,16.58-10.75.97-.78-.29-2.4-1.33-1.72-5.17,3.35-10.18,6.91-15.38,10.22-.37-6.17-.74-12.34-1.04-18.52,9.81-2.54,19.08-10.96,27.22-16.31.49-.32.04-1.11-.46-.79-5.1,3.28-10.41,5.73-15.71,8.6-3.93,2.13-8.45,4.03-12.05,6.8-.52-.23-1.14-.21-1.63.07-.05-.02-.06-.08-.12-.09-8.38-2.51-17.27-3.41-25.77-5.55-8.59-2.16-17.14-5.04-25.95-6.07-.29-.04-.41.44-.15.56,8.57,3.83,17.98,5.88,26.97,8.53,7.88,2.32,15.9,5.07,24.18,5.14-.93,34.47,2.9,69.4,5.62,103.71,2.39,30.17,4.35,60.76,9.15,90.72-.22.44-.09.96.22,1.31.51,3.11,1.02,6.22,1.59,9.32.15.8,1.44.61,1.41-.19-.12-3.17-.32-6.34-.47-9.52,1.82-1.02,3.41-2.48,5.05-3.76,2.26-1.76,4.51-3.54,6.76-5.32,1.41-1.12-.44-3.52-1.93-2.51-2.31,1.56-4.57,3.18-6.74,4.93-1.08.87-2.26,1.73-3.33,2.69-.08-1.53-.14-3.06-.23-4.59,4.23-2.43,8.33-5.28,12.14-8.29,1.33-1.06-.45-3.4-1.83-2.38-3.62,2.65-7.13,5.6-10.39,8.73-.15-2.8-.29-5.6-.45-8.39,4.35-2.76,9.07-4.97,13.28-7.93.68-.48.28-1.82-.61-1.46-4.8,1.95-8.82,5.31-12.71,8.67-.14-2.41-.32-4.82-.47-7.23,1.97-1.39,3.89-2.85,5.97-4.11,2.79-1.69,5.86-2.93,8.6-4.67,1.21-.77.46-2.81-1-2.37ZM192.85,258.75c.02.06.08.09.15.06.05-.03.1-.06.15-.09.09-.05.15-.18.12-.28-.02-.06-.05-.12-.07-.18-.17-.43-.72-.43-.88,0-2.42,6.32.97,18.24,1.7,24.9,1.04,9.45,2.23,18.88,3.75,28.26.13.79,1.5.61,1.41-.19-1.02-9.36-2.18-18.71-3.24-28.07-.86-7.61-.17-17.3-3.08-24.4ZM217.03,231.1c-4.96,1.31-8.84,5.33-12.37,8.8-.71.69.34,1.69,1.07,1.07,3.78-3.19,8.48-5.04,12.35-8.07.89-.7-.09-2.05-1.05-1.8Z"/>
  <path class="cls-1" d="M358.24,351.9c-23.82,13.67-45.27,34.43-66.59,51.65-5.24,4.23-10.3,9.09-15.87,12.87-10.17,6.9-18.23,5.51-29.34,2.91-14.35-3.36-28.7-6.72-43.05-10.08-2.71-.63-4.77,3.45-1.99,4.72,20.31,9.33,41.05,17.74,62.38,24.44,2.89.91,4.03-3.5,1.24-4.49-20.69-7.34-41.06-15.21-61.01-24.41-.66,1.58-1.33,3.15-1.99,4.72,16.51,3.85,33.02,7.7,49.52,11.54,4.43,1.03,11.1,3.89,15.89,2.84,4.42-.97,8.72-5.95,11.96-8.6,12.86-10.54,25.55-21.29,38.3-31.95,13.67-11.42,29.07-22.39,40.84-35.8.17-.2-.05-.51-.29-.37h0Z"/>
  <path class="cls-1" d="M264.62,435.25c4.27-3.64,7.93-7.71,12.48-11.12,3.2-2.4,6.5-4.67,9.43-7.41,7.19-6.72,11.84-15.48,19.74-21.56,1.92-1.48.33-4.46-1.94-3.32-9.36,4.69-13.91,14.43-21.29,21.39-6.67,6.29-17.93,11.35-20.46,20.83-.33,1.25,1.15,1.96,2.05,1.19h0Z"/>
  <path class="cls-1" d="M262.48,427.12c-1.73.27-3.39.5-5.15.42-2.1-.1-2.36,2.95-.48,3.55,1.44.46,2.79.92,4.11,1.67,2.15,1.22,3.95-1.94,1.92-3.29-3.31-2.2-7.18-2.07-10.16.62-1.64,1.48.5,4.29,2.38,3.08,1.72-1.11,4.03-1.5,5.86-.42.64-1.1,1.28-2.19,1.92-3.29-1.6-.87-3.26-1.6-5.07-1.87.14,1.1.29,2.2.43,3.3,1.57-.74,3.19-1.11,4.86-1.52,1.5-.37.83-2.49-.62-2.26h0Z"/>
  <path class="cls-1" d="M201.44,411.88c-6.26,5.45-12.9,10.53-19.35,15.76-5.32,4.32-8.1,6.93-15.29,7.71-6.59.71-10.94-.3-17.27-1.78-16.39-3.81-32.81-7.46-49.23-11.13-3.73-.83-5.32,4.91-1.58,5.73,11.43,2.52,22.86,5.08,34.3,7.54,9.84,2.12,20.56,5.72,30.61,6.25,6.29.33,10.08-2.53,14.7-6.41,8.49-7.14,15.93-15.22,23.72-23.07.4-.41-.2-.99-.62-.62h0Z"/>
  <path class="cls-1" d="M104.14,424.82c-7.02,6.4-14.36,12.46-22.15,17.91-8.67,6.07-14.86,10.92-25.77,7.62-17.97-5.44-35.28-12.38-51.99-20.96v4.88c6.82-4.19,13.62-8.41,20.42-12.63-.94-1.6-1.87-3.21-2.81-4.81-5.09,3.43-13.74,9.54-8.7,16.21,3.06,4.05,13.21,7.24,17.63,9.29,6.62,3.08,13.36,5.86,20.17,8.5,2.86,1.11,4.95-3.77,2.1-4.99-8.97-3.86-16.76-8.7-24.14-15.17-.89,1.52-1.77,3.04-2.66,4.57,15.31,6.25,30.62,12.5,45.92,18.75.48-1.76.97-3.51,1.45-5.27-11.23-2.24-20.19-6.86-28.44-14.82v3.95c5.79-5.75,12.12-10.33,19.37-14.06-1.15-1.49-2.29-2.97-3.44-4.46-3.12,3.37-5.56,6.82-7.63,10.93-1.23,2.43,1.32,5.4,3.87,3.87,2.71-1.62,2.86-1.74,4.39-4.51,1.13-2.05-.35-3.99-2.44-4.25-5-.63-10-1.26-14.99-1.89.9,1.19,1.81,2.37,2.71,3.56.09-4.01,1.85-7.05,5.29-9.13,2.57-2.02-.71-5.87-3.39-4.4-4.4,2.42-8.81,4.84-13.21,7.26-3.14,1.73-.34,6.53,2.81,4.81,4.41-2.41,8.82-4.82,13.23-7.23-1.13-1.47-2.26-2.93-3.39-4.4-4,3.13-6,6.55-6.75,11.59-.29,1.97.75,3.31,2.71,3.56,5,.64,10,1.28,14.99,1.92-.81-1.42-1.63-2.84-2.44-4.25-.79.82-1.58,1.65-2.37,2.47,1.29,1.29,2.58,2.58,3.87,3.87,1.94-3.83,3.75-6.52,6.76-9.78,2.21-2.39-.56-5.96-3.44-4.46-7.7,4.01-14.32,8.88-20.45,15.02-1.05,1.05-1.09,2.9,0,3.95,8.84,8.47,18.92,13.78,30.94,16.14,3.51.69,4.67-3.96,1.45-5.27l-45.92-18.75c-2.54-1.04-4.63,2.84-2.66,4.57,7.65,6.71,15.89,11.99,25.24,16.02.7-1.66,1.4-3.33,2.1-4.99-7.68-2.98-15.27-6.18-22.7-9.77-2.36-1.14-5.52-2.17-7.58-3.79-3.52-.31-4.58-1.71-3.19-4.21.29-3.12,2.2-5.17,5.72-6.17,2.96-1.96.28-6.69-2.81-4.81-6.83,4.17-13.66,8.35-20.47,12.56-1.71,1.06-1.96,3.89,0,4.88,8.98,4.57,18.12,8.79,27.49,12.5,10.08,3.98,23.17,10.37,34.08,10.89,7.38.35,13.49-5.78,19.43-10.2,8.47-6.3,16.18-13.31,23.45-20.96,1.06-1.12-.56-2.72-1.69-1.68h0Z"/>
</svg>