<?xml version="1.0" encoding="UTF-8"?>
<svg id="Layer_1" data-name="Layer 1" xmlns="http://www.w3.org/2000/svg" viewBox="0 0 951.36 320.99">
  <defs>
    <style>
      .cls-1 {
        fill: #211e1f;
      }
    </style>
  </defs>
  <path class="cls-1" d="M186.11,140.59c37.06,4.7,80.25-13.35,89.38-46.54v37.11c0,1,.49,1.66,1.15,2.06.38.28.83.49,1.41.51,15.26.44,30.53.88,45.79,1.32,1.4.04,2.55-1.21,2.57-2.57.19-15.72.39-31.44.58-47.16.94,3.64,2.19,7.32,3.86,11.04,11.12,24.72,42.04,34.42,66.92,37.29,7.02.81,7.68,1.7,11.71-1.99,4.25-3.9,6.03-19,7.61-24.61,2.16-7.65,4.05-15.36,5.87-23.09v62.9c0,1,.49,1.66,1.14,2.05.38.28.83.5,1.42.52,16.01.44,32.03.88,48.04,1.31,1.4.04,2.55-1.21,2.57-2.57.55-42.94,1.11-85.89,1.66-128.83.02-1.36-1.19-2.61-2.57-2.57-16.57.53-33.14,1.05-49.71,1.58-1.39.04-2.57,1.14-2.57,2.57v51.22c-9.48-3.92-18.97-7.84-28.45-11.77-1.38-.57-2.71.64-3.16,1.79-2.65,6.73-8.67,15.62-7.25,22.74.38,1.91,3.29,4.29,3.41,5.93,2.11,1.99,1.95,2.44-.5,1.34-2.08-1.31-4.15-2.63-6.23-3.94-18.84-18.24,1.39-49.01,21.65-55.01.8-.24,1.31-.74,1.58-1.33.17-.33.29-.7.31-1.14.32-8.27.63-16.53.95-24.8.05-1.41-1.22-2.55-2.57-2.57-33.78-.57-66.47,20.82-75.33,50.83.21-16.86.41-33.71.62-50.57.02-1.35-1.19-2.61-2.57-2.57-15.79.53-31.59,1.05-47.38,1.58-1.39.05-2.57,1.14-2.57,2.57v61.82c-.83-3.35-1.97-6.78-3.43-10.31-8.97-21.6-27.74-37.57-50.21-43.8-7.31-2.03-31.92-8.12-36.6,1.37-.03.06-.02.12-.05.18-.17.32-.28.69-.3,1.12-2,40.79-2.08,81.6-1.36,122.43.03,1.52,1.17,2.39,2.57,2.57ZM428.1,23.91c.04-.15.06-.27.08-.39.21-.04.42-.09.68-.15,2.5-.66,5.88-.19,8.41-.27,8.74-.28,17.48-.56,26.23-.83,2.96-.09,6.36-.65,9.31-.3.11.01.15,0,.24,0,.22,2.94-.51,7.18-.54,9.23-.43,33.25-.86,66.5-1.29,99.75-.06,4.72.47,9.85-.18,14.51-.85.16-2.06.32-3.54-.05-11.65-2.96-26.88-1.1-39.41-1.14v-64.29c0-16.14-4.54-40.47,0-56.08ZM374.16,13.49c6.78-2.2,25.13-6.55,25.89-4.97,2.05,4.27-.09,14.34-.7,20.33-19.51,6.51-32.27,23.39-29.93,44.75,1.17,10.66,8.17,24.58,20.87,24.33,1.09-.02,2.22-.78,2.48-1.89,1.22-5.23-3.44-8.44-3.87-13.29-.2-2.26,2.97-9.84,4.35-11.51.34-4.88,2.7-5.87,7.08-2.97,4.78,1.97,9.55,3.95,14.33,5.93,7.42,9.04-1.47,40.14-7.72,48.86-.2,6.02-2.7,8.53-7.38,7.7.56-.89.4-2.33-.91-2.79-27.38-9.67-57.02-23.75-53.86-57.97,2.53-27.35,21.53-43.97,45.87-52.58.82-.29.74-1.59-.21-1.58-26.7.32-46.96,29.74-49.52,53.91-3.16,29.8,16.99,45.57,40.63,55.65-9.18-2.35-18.28-5.59-26.44-10.41-43.73-25.8-23.15-87.81,19.06-101.49ZM280.63,8.22c.13-.35.15-.55.17-.77,2.29-.48,5.95.04,7.86-.02,8.16-.27,16.32-.54,24.48-.82,2.72-.09,7.23-1.03,10.09-.43.25,2.95-.5,7.28-.52,9.34-.4,32.27-.79,64.54-1.19,96.81-.07,5.29-.68,10.94-.2,16.23.06.71.15,1.23.24,1.67-.35-.23-.8-.42-1.5-.45-13.15-.45-26.3-.76-39.45-1.13V30.49c0-6.26-2.12-16.53,0-22.27ZM188.23,99.94c-.09-27.84.42-55.67,1.77-83.47,2.74-3.32,15.57-.97,18.68-.63,15.62,1.73,30.79,7.99,42.27,18.99,30.47,29.19,27.12,73.1-11.49,92.49-10.89,5.47-28.62,11.66-40.88,9.24-10.14-2.01-8.97-3.22-10.14-13.68-.84-7.48-.17-15.45-.2-22.95Z"/>
  <path class="cls-1" d="M221.94,92.55c7.45-7.05,14.87-14.05,13.05-25.42-1.25-7.8-6.59-10.61-13.04-13.7-.08-.04-.15-.03-.23-.06-.12-.05-.25-.07-.38-.1-.2-.04-.4-.1-.59-.1-1.17-.02-2.31.68-2.56,2.03-.05.16-.08.3-.1.46-.18,11.69-.35,23.38-.53,35.07-.03,2.28,2.8,3.31,4.39,1.82ZM223.16,59.72c3.55,1.88,6.36,4.18,6.9,9.16.74,6.91-2.92,11.58-7.28,15.84.13-8.33.25-16.66.38-24.99Z"/>
  <path class="cls-1" d="M617.84,61.37c.02.16.03.31.08.46.24,1.04,1.01,1.95,2.37,2.01,3.47.15,7.03.43,10.5.21,3.32-.22,4.05-1.72,4.03-4.84-.03-4.38-.57-8.8-.97-13.15-.27-2.86-.07-6.58-1.09-9.31-.42-1.12-1.27-1.83-2.48-1.89-2.25-.11-4.49-.22-6.74-.33-1.51-.07-2.4,1.25-2.57,2.57-.98,7.83-1.97,15.67-3.16,23.48-.03.16.02.3.02.45,0,.11,0,.22.01.34ZM625.77,39.78c.82.04,1.64.08,2.46.12.23,1.58.21,3.31.35,4.76.38,3.9.72,7.8.96,11.72.03.55-.05,1.59-.03,2.5-.26.03-.48.05-.6.05-1.9,0-3.79-.08-5.69-.16.92-6.32,1.76-12.66,2.56-19Z"/>
  <path class="cls-1" d="M483.12,48.62c6.05-.16,20.96-2.23,25.17,3.06,4.06,5.09.33,33.09.31,39.72-.04,14.86-3.33,33.31.27,47.83.21.85.95,1.58,1.79,1.79,11.94,3.08,29.16,3.02,41.35,1.34.92-.13,1.49-1.03,1.79-1.79,2.13-5.46,1.11-13.52,1.34-19.22.56-13.87.91-27.74,1.28-41.62.19-7.17-2.66-24.7.79-31.15,1.47-2.75,1.5-2.07,8.27-1.69,4.77.27,9.61.03,14.39.15.69.02,1.27-.27,1.71-.7-1.72,10.31-3.39,20.64-4.97,30.97-2,13.04-3.96,26.09-5.68,39.18-.61,4.64-2.79,11.55-1.54,16.22.33,1.21,1.24,1.76,2.21,1.81.1.02.17.07.27.08,9.13.68,37.78,4.43,43.89-3.53,4.6-5.99.4-19.35,3.27-26.1,1.8-4.23.61-2.93,2.89-4.39-.27.17,6.44-.26,6.99.18.08.06,1.14,11.79,1.54,15.99,1.92,20.18,3.44,18.34,23.71,18.24,11.16-.06,26.23,3.71,28.72-7.77.51,7.65,1.52,15.02,3.64,21.5.39,1.19,1.29,1.74,2.48,1.89,24.47,2.93,52.94-2.16,77.18-5.25.5-.06.9-.27,1.25-.52.69-.39,1.24-1.05,1.32-2.05.79-9.93,1.57-19.85,2.35-29.78.11-1.37-1.27-2.58-2.57-2.57-8.49.1-29.52,4.39-36.8.33-.21-.12-.37-.19-.55-.28-.04-.13-.07-.23-.12-.38-1.16-3.07-.07-8.92-.08-12.15-.03-26.77.27-53.53.04-80.3-.01-1.37-1.17-2.59-2.57-2.57-15.91.3-31.81.53-47.72.83-1.33.03-2.65,1.16-2.57,2.57,1.26,22.18,2.55,44.35,3.89,66.52.57,9.46.2,20.44.38,31.37-.85-4.83-2.13-9.8-2.63-13.33-1.82-12.95-3.72-25.9-5.64-38.84-1.79-12.04-3.6-24.08-5.47-36.1-.81-5.17-.5-18.36-3.77-22.79-6.31-8.56-29.99-4.25-39.4-4.06-10.22.21-30.23-3.23-36.48,6.23-4.15,6.29-4.22,19.89-5.47,27.02-.32,1.79-.6,3.59-.91,5.39.43-9.35.2-18.82.22-28.15,0-1.35-1.18-2.61-2.57-2.57-32.88,1.11-65.76,2.03-98.65,2.95-.63.02-1.1.25-1.49.57-.13.09-.25.17-.36.28-.01.01-.02.02-.03.04-.4.41-.69.95-.7,1.69-.15,10.54.38,20.88,1.45,31.36.14,1.35,1.07,2.61,2.57,2.57ZM683.61,24.03c.23-1.39.31-2.31.31-2.93.38.25,1.08.32,2.32-.15,5.91-2.22,28.15-2.31,33.75-.57,9.7,3.02,6.01,15.37,6,24.99,0,11.31-.06,22.63-.1,33.94-.04,10.99-1.93,23.81.32,34.64.24,1.14,1.4,1.83,2.48,1.89,5.06.26,10.16.04,15.21,0,1.59-.01,22.85-1.2,22-2.14,2.51,2.76-.91,19.56-2,26.78-20.29,2.5-40.72,3.94-61.14,4.74-2.1.08-8.96.05-11.45.54.05-1.46-.58-4.38-.53-5.41,1.31-27.04-3.64-55.88-5.23-82.92-.6-10.18-3.63-23.3-1.93-33.39ZM585.37,54.56c2.09-12.78,2.77-27.78,7.21-40,1.73-4.76.59-4.74,4.09-6.7,5.01-2.8,16.96-1.14,22.57-1.31,6.92-.21,36.21-4.16,40.65-.17,4.18,3.76,4.09,24.68,4.9,29.96,2.54,16.49,4.99,32.99,7.39,49.49,1.63,11.2,7.77,29.08,5.56,40.18-1.1,5.52.2,2.99-8.25,3.5-8.07.49-18.2,1.83-26.15.29-2.22-.43-5.07.59-6.44-.85-1.78-1.88-1.24-11.39-1.49-14.12-.5-5.43-.04-12.1-1.9-17.3-.39-1.08-1.28-1.88-2.48-1.89-4.75-.04-9.56-.58-14.27.15-.85.13-1.58,1.01-1.79,1.79-2.47,9.04.34,27.14-6.45,31.18-6.62,3.94-24.89,1.76-34.45.9-1.09-7.67,2.81-19.27,3.81-26.29,2.33-16.29,4.83-32.56,7.48-48.81ZM484.15,17.16c29.11-.93,58.92-3.88,87.95-2.58,5.07.23,3.85-2.05,5.63.82,1.12,1.81-.06,7.13-.08,9.18-.04,3.91,1.54,14.16,0,18.31.42-2.95-9.76-1.27-14.02-1.12-3.34.12-7.1-.33-10.17,1.22-.82.41-1.24,1.35-1.27,2.22-.61,15.62-.79,31.26-1.23,46.88-.26,9.19-.52,18.39-.88,27.58-.12,3.12,1.31,16.89-1.09,19.22-.04.04-22.29-1.82-25.77-1.98-1.16-.05-2.16-.08-3.02-.09.53-.29.93-.79.93-1.57.11-30.98,3.22-62.13,2.55-93.07-.02-1.01-1.67-1.33-1.84-.25-4.75,30.54-4.09,62.47-4.56,93.32-.01.75.35,1.24.84,1.54-4.08-.09-3.34-.58-4.54-7.29-2.13-11.83.14-26.09.17-38.1.04-14.94-.02-29.88-.46-44.81-.04-1.39-1.14-2.57-2.57-2.57-4.39-.01-17.98,1.85-22.01-.62-6.27-3.85-4.94-17.83-4.55-26.23Z"/>
  <path class="cls-1" d="M949.49,255.61c-9.55-3.95-19.11-7.9-28.66-11.85-1.38-.57-2.7.64-3.16,1.79-2.65,6.72-8.68,15.62-7.25,22.74.38,1.91,3.29,4.29,3.41,5.93,2.11,1.99,1.94,2.44-.5,1.34-2.07-1.31-4.15-2.63-6.23-3.94-18.83-18.24,1.39-49.01,21.65-55.01.81-.24,1.31-.74,1.58-1.33.17-.33.29-.7.31-1.14.32-8.27.63-16.53.95-24.8.05-1.41-1.22-2.55-2.57-2.57-48.21-.81-94.3,43.08-71.85,92.98,11.12,24.72,42.04,34.42,66.92,37.29,7.02.81,7.68,1.7,11.7-1.99,4.25-3.9,6.03-19,7.61-24.61,2.95-10.48,5.51-21.04,7.87-31.66.33-1.48-.45-2.6-1.79-3.16ZM933.24,306.46c-.29,8.74-5.31,10.26-15.08,4.55-2.3-.44-4.59-.89-6.89-1.33-10.33-2.38-20.69-5.89-29.86-11.29-43.73-25.8-23.15-87.81,19.06-101.49,6.78-2.2,25.13-6.55,25.89-4.97,2.05,4.27-.09,14.34-.7,20.33-19.51,6.51-32.27,23.39-29.93,44.75,1.17,10.66,8.17,24.58,20.87,24.33,1.09-.02,2.22-.78,2.48-1.89,1.22-5.23-3.44-8.44-3.87-13.29-.2-2.26,2.97-9.84,4.35-11.51.34-4.88,2.7-5.87,7.08-2.97,4.78,1.97,9.55,3.95,14.33,5.93,7.42,9.04-1.47,40.14-7.72,48.86Z"/>
  <path class="cls-1" d="M725.44,185.32c-16.57.53-33.14,1.05-49.71,1.58-1.39.04-2.57,1.14-2.57,2.57v125.94c0,1,.49,1.66,1.14,2.05.38.28.83.5,1.42.52,16.01.44,32.03.88,48.04,1.31,1.4.04,2.55-1.21,2.57-2.57.56-42.94,1.11-85.89,1.66-128.83.02-1.36-1.19-2.61-2.57-2.57ZM722.72,199.78c-.43,33.25-.86,66.5-1.29,99.74-.06,4.72.47,9.85-.18,14.52-.85.16-2.06.32-3.54-.05-11.65-2.96-26.88-1.1-39.41-1.14v-64.29c0-16.14-4.54-40.47,0-56.08.04-.15.06-.27.08-.39.21-.04.42-.09.68-.15,2.5-.66,5.88-.19,8.41-.27,8.74-.28,17.48-.55,26.23-.83,2.96-.09,6.36-.65,9.31-.3.11.01.15,0,.24,0,.22,2.94-.51,7.18-.54,9.24Z"/>
  <path class="cls-1" d="M463.67,269.71c-3.85-4.92-13.35-12.65-14.66-18.24-3.35-14.2,18.32-29.66,27.49-38.63,1-.98.96-2.65,0-3.63-7.56-7.74-15.28-14.93-23.76-21.66-1.08-.86-2.57-1.08-3.63,0-13.75,14.04-28.41,27.13-42.33,40.99-.26-13.78-.54-27.53-.25-41.32.03-1.33-1.2-2.66-2.57-2.57-15.21.95-30.51.71-45.68,2.05-1.38.12-2.57,1.08-2.57,2.57v127.81c0,1.08.57,1.76,1.3,2.14.35.23.76.4,1.27.43,14.79.76,29.61-.18,44.39-.77,1.39-.05,2.56-1.13,2.57-2.57.1-18.27.68-36.48.25-54.73,15.78,15.95,32.9,30.5,48.38,46.75.72.75,2.22,1.05,3.11.4,7.22-5.28,14.12-10.82,20.83-16.74.77-.68,1.04-2.25.4-3.11-4.79-6.44-9.61-12.85-14.55-19.17ZM466.79,294.75c-2.12,2.31-4.8,3.56-8.05,3.75-4.41,3.1-7.8,2.12-10.16-2.95-15.88-10.23-30.97-28.49-43.97-42.12-1.51-1.58-4.47-.4-4.39,1.82.58,15.08,3.64,35.8-.03,50.5-3.17,12.71-26.27,9.86-39.34,8.93v-115.56c0-1.43-.71-5.62-.06-7.07.16.07.53-.07,1.23-.55,4.95-3.4,36.5-2.4,39.24,1.73,1.92,2.88-.03,15.08.03,18.85.12,7.5.33,14.99.46,22.49.04,2.19,2.8,3.43,4.39,1.82,8.39-8.58,17.11-16.76,25.85-24.98,8.01-7.53,14.97-19.57,25.54-13.4,7.9,4.61,12.64,10.77,7.93,18.55-6.06,10.02-17.77,19.59-25.08,28.92-.92,1.17-.98,2.46,0,3.63,8.11,9.72,17.55,19.4,24.21,30.17,3.69,5.97,7.6,9.69,2.21,15.48Z"/>
  <path class="cls-1" d="M849.68,186.26c-16.36-.86-32.72-1.72-49.08-2.59-1.41-.07-2.53,1.24-2.57,2.57-.4,15.19-1.43,30.23-2.92,45.31-4.02-8.95-7.94-17.95-11.86-26.95-1.94-4.46-4.94-17.4-9.35-20.18-8.4-5.3-30.31.67-40.04,1.33-1.44.1-2.49,1.1-2.57,2.57-2.31,42.64-3.44,85.32-3.4,128.02,0,1.09.58,1.78,1.33,2.16.09.06.18.12.29.16.02,0,.03,0,.05.01.27.12.56.22.91.24,14.21.82,28.44,1.73,42.67,2.07,1.42.03,2.53-1.2,2.57-2.57.5-16.75-.04-33.49.4-50.22,7.51,15.43,14.18,31.3,20.71,47.14.46,1.11,1.23,1.83,2.48,1.89,15.2.67,30.26,1.95,45.49,1.7,1.4-.02,2.55-1.16,2.57-2.57.64-42.55,4.7-84.94,4.91-127.52,0-1.44-1.18-2.49-2.57-2.57ZM846.59,219.14c-.23,6.89-.54,13.78-.89,20.67-.75,14.9-1.76,29.78-2.48,44.68-.72,14.75,3.82,29.98-15.4,29.21-8.95-.36-22.6,1.64-27.63-3.51-4.62-4.74-7.52-17.77-10.02-23.48-4.44-10.13-8.97-20.23-14.06-30.06-1.24-2.4-4.65-1.09-4.79,1.3-.67,11.56-.7,23.09-.62,34.67.03,3.6,1.72,16.55.03,19.83-2.16,4.22.15,1.88-5.25,3.17-9.3,2.22-22.24-.65-32.45-1.6,0-26.9.4-53.8,1.34-80.69.26-7.55.56-15.1.91-22.66.01-.27-.6-20.21-.89-19.8,1.16-1.6,14.74-.96,16.26-1.05,4.91-.3,14.35-2.69,19.05-1.02,1.39.5,1.74,1.82,4.08,6.99,7.05,15.53,13.49,31.33,20.67,46.81,1.19,2.58,4.54.93,4.79-1.3,1.45-13,.35-28.98,3.52-41.64,2.74-10.94,4.16-8.91,14.19-9.97,8.84-.93,25.18-1.5,30.12,7.09,2.48,4.31-.33,17.73-.48,22.37Z"/>
  <path class="cls-1" d="M249.96,248.46c-1.79-12.04-3.6-24.08-5.47-36.1-.81-5.17-.5-18.36-3.77-22.79-6.31-8.56-29.99-4.25-39.4-4.06-10.21.21-30.23-3.23-36.48,6.23-4.15,6.29-4.21,19.89-5.47,27.02-2.5,14.24-4.77,28.53-6.96,42.82-1.1,7.18-2.18,14.36-3.22,21.55-1.64-36.16-3.29-72.31-4.93-108.47-.06-1.31-1.13-2.67-2.57-2.57-11.24.78-31.91-2.04-41.65,3.51-4.83,2.76-9.21,11.95-12.59,16.34-3.84,4.99-7.68,9.97-11.52,14.96-.6.78-2.03,2.29-3.13,3.7-1.12-1.59-2.92-3.43-3.79-4.64-3.42-4.73-6.83-9.46-10.24-14.19-2.83-3.92-6.01-11.24-10.34-13.68-4.58-2.57-14.48-1.48-19.48-1.95-8.78-.82-17.56-1.64-26.34-2.46-1.39-.13-2.56,1.28-2.57,2.57-.24,43.79.99,87.53,1.53,131.31,0,.43.1.8.26,1.12.31.87,1.08,1.54,2.31,1.45,15.25-1.05,30.49-2.1,45.74-3.15,1.38-.1,2.57-1.1,2.57-2.57-.03-14.08-.05-28.17-.08-42.25,6.96,7.65,13.93,15.31,20.89,22.96.89.97,2.76,1.02,3.63,0,8.22-9.51,16.45-19.02,24.67-28.53-.23,16.33-.46,32.67-.69,49-.02,1.37,1.19,2.59,2.57,2.57,14.03-.25,28.05-.5,42.08-.75-.61,3.35-1.06,6.84-.32,9.56.33,1.21,1.24,1.76,2.21,1.81.1.02.17.07.27.08,9.13.68,37.78,4.43,43.89-3.53,4.6-5.99.4-19.35,3.27-26.1,1.8-4.23.61-2.93,2.89-4.39-.27.17,6.44-.26,6.99.18.08.06,1.14,11.79,1.54,15.99,1.92,20.18,3.44,18.34,23.71,18.24,11.29-.06,26.61,3.83,28.82-8.16,1.19-6.46-2.29-17.44-3.18-23.78-1.82-12.96-3.72-25.9-5.64-38.84ZM144.64,302.99c-5.08.89-13.33-.46-17.17-.39-5.72.1-15.39,1.95-21.39.6-.01-.24,0-.4-.03-.7-.33-2.45.08-5.56.11-8,.21-14.97.42-29.93.63-44.9.03-2.12-2.9-3.53-4.39-1.82-4.43,5.12-8.86,10.25-13.29,15.37-3.67,4.25-8.88,13.45-13.85,16.49-.3-.38-.73-.84-1.37-1.43-2.5-2.32-4.68-5.14-6.97-7.66-5.11-5.62-10.22-11.24-15.33-16.86-1.52-1.67-4.39-.34-4.39,1.82.03,13.46,1.68,27.94.08,41.29-.55,4.58,3.83,2.97-.18,5.23-1.9,1.07-6.33.44-8.55.59-10.64.73-21.27,1.46-31.91,2.2-.3-21.54-.89-43.08-1.23-64.62-.22-13.93-.33-27.86-.33-41.8,0-2.68-1.18-20.23-2.05-19.55,1.12-.88,5.89.79,7.37.69,7.76-.53,16.41,1.53,24.2,2.26,3,.28,8.33-.23,11.1,1.04.06.03.07.03.12.05.15.11.23.18.46.34,9.62,6.7,17.14,23.74,24.12,33.42,1.21,1.68,3.21,1.59,4.44,0,8.59-11.15,16.7-25.72,27.05-35.12,2.83-2.57,2.16-1.69,10.27-2.25,8.45-.59,16.92-1.1,25.36-1.76.91-.07,1.47-.34,1.88-.65-.07.45-.12,1-.12,1.73-.07,5.43.5,10.97.74,16.39.83,18.29,1.66,36.58,2.49,54.86.7,15.28-.55,32.35,2.16,47.45.55,3.09-.31,5.1-.06,5.68ZM253.54,310.26c-1.1,5.52.2,2.99-8.25,3.5-8.07.49-18.2,1.83-26.15.29-2.22-.43-5.07.59-6.44-.85-1.78-1.88-1.24-11.39-1.49-14.12-.5-5.42-.04-12.1-1.9-17.3-.39-1.08-1.28-1.88-2.48-1.89-4.75-.04-9.56-.58-14.27.15-.85.13-1.58,1.01-1.79,1.79-2.47,9.04.34,27.14-6.44,31.18-6.62,3.94-24.89,1.76-34.45.9-1.09-7.67,2.81-19.28,3.81-26.29,2.33-16.29,4.83-32.57,7.48-48.81,2.09-12.78,2.77-27.78,7.21-40,1.73-4.76.59-4.74,4.09-6.7,5.01-2.8,16.96-1.14,22.57-1.31,6.92-.21,36.21-4.16,40.65-.17,4.18,3.75,4.09,24.67,4.9,29.95,2.54,16.49,4.99,32.99,7.39,49.49,1.62,11.2,7.77,29.08,5.56,40.18Z"/>
  <path class="cls-1" d="M208.56,221c-.42-1.12-1.27-1.83-2.48-1.89-2.25-.11-4.49-.22-6.74-.33-1.51-.07-2.4,1.25-2.57,2.57-.98,7.84-1.97,15.67-3.17,23.48-.02.16.02.3.02.45,0,.11,0,.22.02.33.02.16.03.32.08.46.24,1.03,1.01,1.95,2.37,2.01,3.47.16,7.03.44,10.5.21,3.32-.22,4.05-1.72,4.03-4.84-.03-4.38-.57-8.8-.97-13.15-.27-2.86-.07-6.58-1.09-9.31ZM205.3,243.13c-.26.03-.48.05-.6.05-1.9,0-3.79-.09-5.69-.16.92-6.32,1.76-12.66,2.56-18.99.82.04,1.64.08,2.46.12.23,1.58.21,3.32.35,4.76.38,3.9.72,7.8.96,11.71.03.55-.05,1.59-.03,2.51Z"/>
  <path class="cls-1" d="M339.05,253.14c-.99-9.52,8.69-14.69,12.32-23.18,7.41-17.34-.64-39.93-14.03-52.26-20.2-18.6-56.4-16.62-81.5-12.26-1.31.23-1.84,1.17-1.83,2.17-.01.11-.06.19-.06.3.6,42.09,3.64,83.8,7.02,125.74.12,1.49,1.09,2.42,2.57,2.57,12.41,1.21,24.6,2.24,37.07,1.52,1.47-.09,2.45-1.11,2.57-2.57.76-9.39.94-18.76,1.06-28.16,6.52,12.04,13.52,23.8,20.19,35.77.52.93,1.86,1.55,2.9,1.18,9.21-3.28,17.97-6.67,26.68-11.13,1.29-.66,1.52-2.33.92-3.51-5.13-10.23-14.67-24.58-15.88-36.18ZM341.36,293.17c-11.52,7.49-16.09.64-21.66-8.95-5.47-9.42-10.74-18.88-15.69-28.59-1.19-2.35-4.75-1.14-4.79,1.3-.1,7.24,2.9,24.16-.55,30.39-4.18,7.55-7.53,5.82-15.3,5.47-10.32-.46-15.09-.32-18.23-10.94-2.25-7.62-1.47-17.65-2.1-25.6-2.28-28.7-3.46-57.34-3.91-86.12,14.73-2.37,30.24-2.8,44.93-.58,37.28,5.63,62.41,47.8,27.86,75.7-.63.51-.98,1.75-.66,2.5,3.58,8.53,6.95,17.15,10.57,25.66,3.88,9.12,9.09,13.55-.48,19.77Z"/>
  <path class="cls-1" d="M308.01,195.74c-1.89-1.18-3.96-1.55-6.15-1.74-1.41-.12-2.54,1.28-2.57,2.57-.2,9.46-.39,18.93-.59,28.4-.03,1.3,1.2,2.69,2.57,2.57,14.94-1.31,17.7-23.72,6.73-31.79ZM303.91,221.64c.15-7.31.3-14.62.45-21.92.35.14.7.24,1.05.46,6.06,4.46,5.52,18.1-1.5,21.46Z"/>
  <path class="cls-1" d="M670.16,179.03c-32.88,1.11-65.76,2.03-98.65,2.95-.63.02-1.1.25-1.49.57-.13.08-.25.17-.36.28-.01.01-.02.02-.03.04-.4.41-.69.95-.7,1.69-.15,10.55.38,20.88,1.45,31.36.14,1.35,1.07,2.61,2.57,2.57,6.05-.16,20.96-2.23,25.17,3.06,4.06,5.09.33,33.09.31,39.72-.04,14.86-3.33,33.31.27,47.83.21.85.95,1.58,1.79,1.79,11.94,3.08,29.16,3.02,41.35,1.34.92-.13,1.49-1.02,1.79-1.79,2.13-5.46,1.11-13.52,1.34-19.22.56-13.87.91-27.74,1.28-41.62.19-7.17-2.66-24.7.79-31.15,1.47-2.75,1.5-2.07,8.27-1.69,4.77.27,9.61.03,14.39.15,1.46.04,2.47-1.21,2.57-2.57.79-10.83.42-21.88.44-32.74,0-1.35-1.18-2.62-2.57-2.57ZM667.49,212.75c.42-2.95-9.76-1.27-14.02-1.12-3.34.12-7.1-.33-10.17,1.22-.82.41-1.24,1.35-1.27,2.22-.61,15.62-.79,31.26-1.23,46.88-.26,9.19-.52,18.39-.88,27.58-.12,3.12,1.31,16.89-1.09,19.22-.04.04-22.29-1.82-25.77-1.98-9.84-.46-8.08,1.29-9.64-7.41-2.13-11.83.14-26.09.17-38.1.04-14.94-.02-29.88-.46-44.82-.04-1.39-1.14-2.57-2.57-2.57-4.39,0-17.98,1.85-22.01-.62-6.27-3.85-4.94-17.83-4.55-26.23,29.11-.93,58.92-3.88,87.95-2.58,5.07.23,3.85-2.05,5.63.82,1.12,1.81-.06,7.13-.08,9.18-.04,3.91,1.54,14.16,0,18.31Z"/>
  <path class="cls-1" d="M565.59,178.05c-28-.91-56.01-1.58-84.01-2.28-1.39-.03-2.57,1.21-2.57,2.57,0,40.85,0,81.69,0,122.54,0,1.11.6,1.82,1.38,2.18.07.04.14.08.21.12.05.02.1.03.15.04.26.1.52.2.83.22,25.98,1.71,52.01,2.04,78.03,3.01,1.41.05,2.54-1.22,2.57-2.57.23-11.39.34-22.8-.58-34.16-.07-.84-.42-1.84-1.27-2.22-9.46-4.19-21.51-.49-31.11-3.83-3.42-1.19-4.41-.25-5.76-2.38-.92-1.45-1.02-9.68-.4-10.76.79-1.39.13-.04,3.82-1.38,3.49-1.27,9.43-.11,13.2-.13,1.41,0,2.54-1.17,2.57-2.57.13-7.48.26-14.96.39-22.43.02-1.39-1.2-2.57-2.57-2.57-2.46,0-11.29,1.22-13.21-.16-8.24-5.96,2.63-10.76,8.44-11.21,9.43-.74,18.88-1.23,28.33-1.7,1.03-.05,2.3-.75,2.48-1.89,1.35-8.5,2.38-17.28,1.66-25.87-.12-1.42-1.08-2.52-2.57-2.57ZM563.01,200.53c-.65,1.03-.96,1.68-1.08,2.1-.45.11-1.12.34-2.16.82-3.77,1.74-12.18.68-16.15.94-6.64.43-15.62-.49-21.79,2.43-.83.39-1.23,1.36-1.27,2.22-.26,4.84-.49,9.39-.03,14.18.1,1.01.72,2.31,1.89,2.48,4.62.67,9.8-.18,14.23.87.61.14,1.06.21,1.4.22.19,1.98-.32,5.77-.33,6.59-.06,3.23-.22,11.3-.37,11.42-.4.29-14.03-.74-16.58-.7-1.04.01-2.28.78-2.48,1.89-4.06,22.61,3.17,22.04,22.18,23.95,3.74.38,13.95-.04,16.21,2.65,4.11,4.88.71,25.91-4.47,28.46-7.37,3.63-27.96-.82-36.4-1.09-7.33-.23-14.64-.57-21.96-.95,1.04-18.41.51-37,.63-55.42.12-18.8,1.03-37.96-.5-56.71-.14-1.73-2.52-1.72-2.68,0-1.76,18.73-1.1,37.9-1.21,56.71-.11,18.35-.87,36.87-.07,55.21-1.96-.11-3.92-.21-5.88-.33,0-28.1,0-56.19,0-84.29,0-10.05,1.21-21.04,0-31.04-.14-1.16-.12-2.01-.07-2.61,2.74-.08,6.86.63,8.22.66,13.24.34,26.49.68,39.73,1.03,6.93.19,13.86.38,20.79.58,7.89.23,8.37-1.34,10.41,5.06.05.17.09,12.2-.21,12.68Z"/>
  <path class="cls-1" d="M202.24,129.78c1.9-35.34,3.5-72.21-1.85-107.31-.11-.75-1.28-.54-1.3.17-.6,35.77,1.59,71.33-.3,107.14-.12,2.22,3.33,2.21,3.45,0Z"/>
  <path class="cls-1" d="M233.51,54.8c13.52,5.06,12.54,26.45,1.12,33.58-1.86,1.16-.23,3.86,1.7,2.91,13.48-6.62,15.74-37.26-2.47-39.05-1.56-.15-1.62,2.08-.35,2.56Z"/>
  <path class="cls-1" d="M292.33,123.5c-.91-35.47-.25-71.9-4.53-107.14-.14-1.16-1.85-1.24-1.87,0-.48,35.64,2.65,71.45,2.69,107.14,0,2.39,3.77,2.39,3.7,0Z"/>
  <path class="cls-1" d="M440.02,136.04c-1.41-35.24-4.27-70.3-5.03-105.62-.03-1.58-2.4-1.58-2.46,0-1.2,34.82-.67,71.52,4.83,105.98.24,1.51,2.72,1.15,2.66-.36Z"/>
  <path class="cls-1" d="M492.41,35.9c.06,1.56,2.35,1.56,2.42,0,.11-2.55-.05-5.12-.11-7.67-.05-1.93.26-4.12-.89-5.74-.11-.15-.3-.15-.41,0-1.15,1.63-.84,3.82-.89,5.74-.07,2.55-.22,5.12-.11,7.67Z"/>
  <path class="cls-1" d="M583.49,127.11c6.98-38.37,15.01-76.4,23.42-114.47.38-1.72-2.18-2.45-2.65-.73-10.19,37.49-18.34,75.76-25.04,114.03-.49,2.79,3.77,3.99,4.28,1.18Z"/>
  <path class="cls-1" d="M640.63,57.02c.25,2.07,3.42,2.2,3.34,0-.15-3.98-.8-7.96-1.51-11.87-.69-3.76-1.21-7.94-3.25-11.22-.36-.58-1.18-.31-1.23.33-.25,3.35.75,6.77,1.25,10.08.64,4.21.9,8.45,1.41,12.68Z"/>
  <path class="cls-1" d="M640.12,91.02c-.94,10.4-.33,22.74,1.66,33,.41,2.12,3.63,1.55,3.67-.5.21-10-.65-21.2-2.2-31.22.39-.04.79-.09,1.18-.13.72,0,.77-.95.16-1.19-.75-.41-1.51-.82-2.26-1.23-1-.7-2.12.26-2.21,1.27Z"/>
  <path class="cls-1" d="M702.74,137.48c-4.11-37.06-7.43-73.8-10.32-110.97-.09-1.22-1.84-1.24-1.91,0-1.83,36.52,1.22,75.62,8.37,111.49.43,2.14,4.1,1.69,3.85-.52Z"/>
  <path class="cls-1" d="M807.76,237.3c2.13-13.14,2.87-27.04,1.43-40.28-.14-1.24-1.95-1.3-1.98,0-.33,13.43-.93,26.51-2.52,39.86-.2,1.73,2.78,2.15,3.06.41Z"/>
  <path class="cls-1" d="M781.01,249.99c-.87-1.03-2.34.28-1.79,1.38,4.78,9.36,10.59,18.2,15.46,27.53,4.86,9.32,8.72,19.15,13.69,28.39.84,1.56,3.33.49,2.85-1.2-5.55-19.49-17.11-40.68-30.22-56.09Z"/>
  <path class="cls-1" d="M744.73,197.03c-4.02,37.53-3.84,75.73-5.45,113.42-.12,2.9,4.44,2.91,4.51,0,.93-37.68,3.68-75.75,2.19-113.42-.03-.82-1.16-.79-1.25,0Z"/>
  <path class="cls-1" d="M870.71,259.67c-.19-25.9,22.57-51.29,45.54-60.21,1.29-.5.79-2.26-.56-2.05-25.38,3.91-48.01,35.86-48.96,60.53-1.16,30.07,28.5,43.47,53.51,50.27,1.48.4,2.39-1.7,1.05-2.48-20.7-12.02-50.35-15.98-50.57-46.07Z"/>
  <path class="cls-1" d="M685.39,197.63c-7.92,36.43,7.14,74.07,4.22,110.94-.2,2.49,3.69,2.48,3.89,0,2.92-36.94-7.22-73.76-7.03-110.79,0-.61-.95-.76-1.08-.15Z"/>
  <path class="cls-1" d="M611.94,214.77c-.13-.98-1.53-1.04-1.58,0-1.24,29.03,5.15,58.42-.25,87.24-.43,2.3,3.15,3.25,3.5.97,2.2-14.19,1.71-28.37,1.03-42.67-.73-15.12-.72-30.53-2.7-45.54Z"/>
  <path class="cls-1" d="M580.1,189.77c-.78,2.58-.53,5.61-.53,8.29,0,2.91-.14,5.95.63,8.77.46,1.68,2.67,1.16,2.84-.39.61-5.35-.69-10.92-.37-16.33.09-1.51-2.16-1.72-2.57-.35Z"/>
  <path class="cls-1" d="M519.32,278.04c9.46,1.17,19.34,1.63,28.61,3.85,1.19.28,1.76-1.24.8-1.91-7.8-5.46-20.45-3.46-29.42-3.7-1.16-.03-1.09,1.62,0,1.76Z"/>
  <path class="cls-1" d="M519.26,236.76c4.2.75,8.43.93,12.69.87,1.91-.03,1.91-2.94,0-2.97-4.25-.06-8.49.12-12.69.87-.61.11-.61,1.13,0,1.24Z"/>
  <path class="cls-1" d="M553.34,198.05c-5.02-1.2-10.39-.65-15.53-.61-5.18.04-10.35-.08-15.49.62-.88.12-.87,1.64,0,1.77,5.14.74,10.31.66,15.49.73,5.14.08,10.5.67,15.53-.5,1-.23.99-1.78,0-2.02Z"/>
  <path class="cls-1" d="M434.74,272.33c-6.96-6.75-13.24-14.9-21.05-20.64-.42-.31-.9.28-.68.68,4.62,8.48,12.57,15.57,19.41,22.27,7.79,7.62,15.97,14.77,24.46,21.6,1.54,1.24,3.76-.92,2.2-2.2-8.39-6.92-16.55-14.13-24.35-21.71Z"/>
  <path class="cls-1" d="M440.96,238.09c7.82-7.66,13.7-17.02,21.9-24.29.66-.59-.04-1.65-.84-1.44-4.81,1.28-7.67,5.83-10.7,9.47-4.09,4.93-8.2,9.85-11.72,15.21-.55.83.66,1.72,1.35,1.04Z"/>
  <path class="cls-1" d="M367.85,195.51c-.95,36.39,3.16,73.08,4.76,109.42.09,2,3.21,2.01,3.12,0-1.6-36.4-1.34-73.49-6.54-109.6-.11-.78-1.31-.56-1.33.18Z"/>
  <path class="cls-1" d="M264.54,175.84c-.34,35.03,3.09,70.86,6.05,105.76.2,2.34,3.84,2.4,3.7,0-1.92-35.06-2.85-70.94-7.37-105.76-.19-1.47-2.37-1.58-2.38,0Z"/>
  <path class="cls-1" d="M311.63,194.47c3.37-1.68,7.18,15.5,7.36,17.64.55,6.58-.79,12.95-3.7,18.85-1.02,2.07,2.09,3.89,3.1,1.81,4.4-9.04,5.55-19.23,2.47-28.91-.97-3.06-5.54-15.59-10.08-10.49-.53.6.13,1.45.84,1.1Z"/>
  <path class="cls-1" d="M307.66,249.29c-.81-.89-2.3.26-1.67,1.29,7.77,12.54,15.6,24.66,22.51,37.72.68,1.29,3,.38,2.41-1.02-5.62-13.48-13.38-27.17-23.25-37.99Z"/>
  <path class="cls-1" d="M177.8,199.71c-6.9,17.11-8.2,37.94-10.94,56.1-2.65,17.53-5.33,35.09-7.46,52.69-.25,2.09,3.39,2.6,3.71.5,2.88-18.88,5.17-37.85,8.03-56.73,2.59-17.07,7.62-35.18,7.53-52.44,0-.53-.69-.55-.86-.12Z"/>
  <path class="cls-1" d="M217.04,244.76c.5-8.5-.6-17.34-1.12-25.84-.11-1.77-2.81-1.81-2.79,0,.1,8.51-.33,17.4.79,25.84.26,1.94,3,2.06,3.12,0Z"/>
  <path class="cls-1" d="M216.34,279.62c-.33-.72-1.5-.35-1.47.4.24,5.56,1.39,11.06,1.9,16.61.45,4.92-.14,10.15,1.12,14.92.3,1.15,1.93,1.08,2.26,0,1.65-5.28.59-11.75-.11-17.16-.66-5.06-1.57-10.11-3.7-14.77Z"/>
  <path class="cls-1" d="M12.01,188.41c-4.05,36.55-1.32,74.5,1.69,111.04.19,2.34,3.86,2.36,3.67,0-3.03-37.04-2.05-73.98-3.67-111.04-.05-1.11-1.57-1.06-1.69,0Z"/>
  <path class="cls-1" d="M68.18,258.87c-3.77-4.02-7.4-8.42-11.75-11.82-.81-.63-2.22.17-1.55,1.2,2.72,4.23,6.36,7.86,9.7,11.62,3.63,4.09,7.14,8.74,11.37,12.21,1.22,1,3.4-.3,2.36-1.82-2.82-4.15-6.69-7.72-10.12-11.38Z"/>
  <path class="cls-1" d="M113.42,248.68c-.07,15.52,1.02,31.41,1.98,46.91.12,2,3.02,2.01,3.12,0,.7-15.45.24-32.02-2.43-47.27-.27-1.54-2.66-1.13-2.67.36Z"/>
  <path class="cls-1" d="M106.37,187.75c-4.44,4.66-7.76,10.47-11.52,15.69-4.67,6.5-9.7,12.71-14.61,19.03-1.24,1.6.92,3.9,2.28,2.28,8.95-10.63,19.78-23.4,24.76-36.47.2-.52-.56-.91-.92-.54Z"/>
</svg>