<?xml version="1.0" encoding="UTF-8"?>
<svg id="Layer_1" data-name="Layer 1" xmlns="http://www.w3.org/2000/svg" viewBox="0 0 200.85 266.11">
  <defs>
    <style>
      .cls-1 {
        fill: #211e1f;
      }
    </style>
  </defs>
  <path class="cls-1" d="M200.2,93.3c-1.73-17.15-6.48-34.35-12.6-50.42-.13-.35-.38-.53-.65-.63.32-8.19-1.4-16.8-5.88-23.36-1.62-5.54-5.31-10.39-11.47-13.34-33.79-16.19-74.05,5.38-93.15,34.06-.34.03-.69.02-1.03.05-1.21.11-1.29,1.56-.34,1.97-.03.05-.07.1-.1.15-.06.09-.02.17-.04.25-4.14,7.14-5.39,15.9-4.06,24.05-.29.49-.32,1.17.07,1.64.1.12.23.22.34.34.11.53.19,1.06.33,1.58.28,1.08,1.42,1.08,2.07.52.99.7,2.07,1.32,3.23,1.85-3.2,5.19-3.61,13.59-1.99,19.06-29.66,3.22-57.59,25.84-68.96,52.46-14.56,34.08-1.27,80.72,27.39,103.38,27.42,21.68,67.53,26.78,96.82,5.9,29.25-20.85,44.41-58.02,36.55-93.17-7.65-34.24-33.57-58.95-65.79-67.13.79-3.49.85-7.16,1.45-10.7.52-3.05,1.32-6.03,1.49-9.11.74-.26,1.45-.54,2.12-.85.52.88,2.14.98,2.59-.29,3.03-8.63,4.18-17.65,3.37-26.74-.02-.23-.13-.39-.27-.5-.05-.12-.09-.25-.15-.36,10.2-2.65,20.03-6.9,30.83-4.51,7.94,1.76,15.45,6.05,20.84,12.14-4.3,4-8.56,7.98-11.49,12.5-6.93,10.67-9.82,23.45-5.22,35.47-.08.3-.1.63.04.98,6.73,16.28,26.46,41.2,46.24,25.08,9.37-7.64,8.52-21.57,7.44-32.34ZM119.78,7.11c14.98-5.42,48.19-8.62,57.22,8.58-15-13.83-44.71-8.75-61.2-2-1.25.51-.79,2.52.57,2.09,20.92-6.69,43.09-9.49,61.99,3.27.28.93.58,1.84.74,2.86.46,3.03.28,5.78-.29,8.36-23.34-18.57-69.71-13.86-88.24,8.77-.17.21-.15.42-.06.59-3.89-.26-7.79-.32-11.67-.12,10.83-14.04,23.92-26.23,40.93-32.38ZM156.99,142.22c15.68,32.91,7.59,70.82-17.19,96.87-24.11,25.35-60.46,29.31-91,13.06C16.67,235.06,1.29,198.6,5,163.01c3.88-37.11,38.41-64.09,74.09-68.96,33.01.49,63.41,17.77,77.9,48.17ZM78.65,89.59s-.01,0-.02,0c-.33-3.01-.76-5.97-.57-9.05.01-.21.06-.41.08-.62,2.76,2.39,7.97,2.96,11.21,3.36,2.91.36,5.94.42,8.62-.56-.7,3.12-.97,6.27-.7,9.02-6.04-1.28-12.26-2.06-18.63-2.15ZM98.7,80.01c-4.05,1.86-8.46.99-12.77.03-2.51-.56-5.03-1.83-7.58-1.74.31-1.78.75-3.53,1.07-5.3,6.91,2.3,15.59,2.18,22.28.38-1.24,1.92-2.25,4.2-3.01,6.63ZM105.96,70.59c-5.52-.46-11.1.77-16.68.34-5.89-.45-10.43-2.67-15.66-4.73-1.37-8.64.17-16.32,3.86-24.28,1.62.1,3.24.19,4.86.27-2.18,6.67-3.24,14.27-2.62,21.27.12,1.31,1.97,1.33,2.05,0,.34-5.35.55-10.63,1.6-15.91.15-.74,1.35-3.94,1.14-5.23,2.52.13,5.03.26,7.54.48,4.29.39,14.65-.2,17.81,3.33.18.2.38.26.58.31-.62,8.25-2.08,16.22-4.49,24.15ZM110.77,42.91c-2.29-2.25-7.26-1.93-10.23-2.32-1.14-.15-2.29-.26-3.44-.39,8.56-4.99,17.77-8.4,27.64-9.7,1.18-.16,1.19-2.02,0-1.87-10.67,1.38-20.44,5-29.18,11.32-.03.02-.03.05-.05.07-1.35-.14-2.7-.24-4.06-.34,21.92-16.95,63.21-25.95,86.27-5.9-2.39,5.93-7.09,10.83-12.1,15.55-13.72-15.72-37.53-17.07-54.87-6.43ZM197.52,105.49c-.95,16.65-15.36,26.52-30.55,17.12-8.38-5.19-13.03-14.42-16.78-23.18-5.35-14.35-.21-29.31,10.02-40.17,1.94-2.07,4.01-4.01,6.07-5.95.2-.12.38-.29.53-.49,4.35-4.1,8.62-8.23,11.57-13.6.91-1.65,1.62-3.35,2.2-5.07.55-.48.83-1.22.49-1.91.4-1.53.67-3.06.8-4.59,1.55,4.75,2.59,9.6,2.32,15.12-.56,11.76-6.9,20.42-12.81,29.97-6.48,10.48-11.69,22.21-5.82,34.11.2.4.54.61.92.68,3.27,8.49,14.89,15.81,19.99,4.27,2.4-5.43.29-12.8-.83-18.31-1.74-8.6-3.93-16.85-8.14-24.58,3.33-5.42,6.5-10.91,8.04-16.84.42-1.63.74-3.33.98-5.07,5.05,19.12,12.14,38.47,10.99,58.51ZM169.02,107.66c-.24-.32-.55-.59-.81-.9.18-.3.24-.67.07-1.07-5.19-12.94.93-23.39,7.44-33.9,3.19,6.17,5.2,12.58,6.51,19.45.87,4.58,1.28,8.32,1.03,13.04,1.36,8.61-3.38,9.74-14.24,3.39Z"/>
  <path class="cls-1" d="M62.39,112.59c-1.18.3-1.57,1.31-1.41,2.25-47.67,19.76-48.49,98.49-2.27,123.58,56.91,30.9,112.47-37.85,84.63-90.93-15.31-29.18-49.42-42.97-80.94-34.9ZM143.84,156.83c11.4,32.15-6.31,74.66-41.03,82.96-34.92,8.35-65.95-15.91-73.07-49.45-6.54-30.78,6.5-61.99,34.77-73.97,32.43-7.87,67.82,7.99,79.33,40.46Z"/>
  <path class="cls-1" d="M64.02,145.58c-2.57,3.95-5.82,7.91-7.57,12.29-.37.92.9,1.55,1.58,1,1.76,1.17,3.73,2.04,5.63,2.92,2.04.95,3.99,2.09,6.07,2.95.44.18.78.03,1.06-.22.28.07.57.05.81-.25.05-.05.07-.12.11-.18.68.4,1.39.5,2.17.17-1.51,19.75.74,40.79,1.1,60.32.04,1.93,3.05,1.94,3.01,0-.29-13.72.32-28.12-.07-42.29.53.11,1.08.02,1.54-.28-.45,13.61-.89,27.22-1.44,40.82-.05,1.3,1.19,2.58,2.51,2.51.73-.04,1.61-.04,2.57-.02-2.14.39-4.27.81-6.37,1.34-.91.23-.73,1.68.22,1.66,5.94-.15,11.81-1.04,17.7-1.82,2.25-.3,4.84-.35,7.03-.95,1.39-.39,3.14-1.36,4.63-1.58.53.2,1.12.19,1.6-.03.28.32.72.45,1.09.02,1.55-1.85,3.17-3.61,4.78-5.4.67-.74-.19-2.03-1.11-1.44-.25.16-.43.4-.66.58.58-2.48.15-5.23-.34-7.78-.25-8.07-.97-16.14-1.32-24.2,0-.05-.04-.08-.05-.12-.2-6.95-.68-13.93-1.37-20.83-.04-2.22-.08-4.44-.13-6.66-.08-4.21,1.34-12.36-.39-16.18.02.05.1.02.1-.03.01-.28.02-.45.03-.6.59-.31.94-1.03.32-1.72-1.77-1.97-3.22-4.2-4.95-6.17-.05-.05-.13-.14-.2-.21.38-.77-.11-2-1.17-2.03-5.54-.15-11.21.54-16.73,1.04-4.82.44-9.84.57-14.46,2.05-.35.11-.39.61-.07.79-2.97,2.68-5.13,7.26-7.24,10.51ZM74.23,135.46c-1.24,1.21-2.42,2.45-3.53,3.71.85-1.32,1.74-2.6,2.72-3.8.27.03.54.07.81.08ZM95.04,184.83c0,.11,0,.21,0,.32-.56-.71-1.38-1.1-2.22-1.08.4-5.29.94-10.56,1.59-15.82-.23,4.87-.43,9.74-.8,14.6-.09,1.13.6,1.77,1.44,1.97ZM90.14,163.89v-1.32c.05.1.12.19.19.28-.06.35-.13.69-.19,1.04ZM82.19,163.19c.15-1.45.3-2.89.45-4.34-.02,1.96-.06,3.91-.11,5.85-.1-.51-.23-1.01-.34-1.51ZM81.68,177.51c-.35.04-.68.15-.99.33.19-1.84.38-3.69.57-5.53.12,1.74.28,3.47.42,5.2ZM100.05,199.37c.02-1.19.05-2.37.07-3.56.07,1.01.2,2.15.35,3.39-.15.05-.29.09-.43.17ZM85.93,199.35c.34-.19.63-.44.83-.81.12.07.23.16.36.21.07.73.15,1.46.22,2.19.14,1.37,1.17,2.09,2.22,2.16,0,.15-.01.31-.02.46-.85-.02-1.7.37-2.26,1.32-.53.91-.88,1.77-1.15,2.6-.05-2.71-.11-5.42-.2-8.13ZM95.11,140.04c-.49.24-.88.7-1.03,1.42-.08.38-.16.76-.24,1.14-.43-2.07-1.11-3.77-2.11-4.93,1.05-.23,2.12-.07,3.17.72.29.22.46.55.68.83-.21.21-.38.47-.48.81ZM60.89,158.16c.11.07.22.13.32.2-.82-.2-1.59-.28-2.38-.36.42-.47.85-.94,1.24-1.43-.08.62.32,1.29.81,1.6ZM73.1,149.38c.88-1.2,1.81-2.41,2.78-3.61-1.52,2.69-3.26,5.57-4.98,7.7.79-1.33,1.51-2.7,2.2-4.08ZM83.34,212.4c.31-.1.6-.26.85-.49.09,1.9.24,3.8.29,5.7.03,1.15,1.81,1.16,1.8,0-.02-1.42-.03-2.84-.05-4.26.56,1.24,1.45,2.29,2.59,3.09.1.34.15.67.26,1.02.75,2.34,3.6,2.42,4.79.8,1.37.16,2.81.12,4.26-.17-3.81,2.52-10.19,2.2-15.01,2.2.07-2.63.16-5.25.23-7.88ZM100.7,151.28c-.15-.09-.29-.2-.46-.26.35-4.81.71-9.62,1.06-14.43.09-1.18-1.03-2.02-2.09-2.09-.3-.02-.64-.07-.95-.1,1.16-.11,2.32-.27,3.47-.43-.62,5.71-.91,11.49-1.04,17.31ZM80.89,137.76c-.04-.83-.3-1.51-.86-2.23.9-.04,1.8-.08,2.7-.14-.73.6-1.36,1.36-1.84,2.37ZM73.35,162.41c.15-.2.3-.41.45-.61.29-.38-.1-.71-.47-.72.03-.07.06-.14.09-.21.32-.77.67-1.51,1.03-2.25-.16,1.35-.29,2.7-.41,4.07-.23-.09-.46-.18-.69-.27ZM75.45,156.38c.04-.09.09-.18.12-.27.14-.34-.31-.63-.59-.46-2.27,1.39-3.39,4.24-4.53,6.65-.39-.24-.84-.47-1.27-.7.11-.11.23-.2.32-.33,2.73-3.99,5.42-8.02,8.12-12.04-.62,4.16-1.03,8.33-1.28,12.51-.23-1.71-.43-3.42-.73-5.11-.02-.12-.08-.19-.15-.25ZM108.65,221.43c-.2-1.75-.35-3.5-.53-5.25.23,1.34.43,2.71.69,4.03.04.21.2.3.31.45-.17.25-.32.51-.48.77ZM106.4,140.55h0c-.08,1.64-.06,3.29-.12,4.93-.28-1.62-.54-3.26-.85-4.85-.07-.38-.63-.27-.65.09-.02.26,0,.51-.02.77-.15-.89-.28-1.78-.45-2.67-.15-.76-1.16-.63-1.39-.01-.09-.87-.18-1.74-.28-2.61.96,1.64,2.59,3.32,3.75,4.35Z"/>
  <path class="cls-1" d="M37.81,200.37c.16.36.77.1.64-.27-11.45-32.4.78-59.26,27.33-78.75.27-.2.04-.58-.26-.44-29.62,12.85-40.05,51.38-27.71,79.46Z"/>
  <path class="cls-1" d="M143.61,180.97c.68-11.19-1.41-23.07-9.71-31.18-.22-.22-.53.1-.34.34,7.3,8.91,8.38,19.81,9.49,30.85.04.35.53.36.55,0Z"/>
  <path class="cls-1" d="M134,210.28c3.99-6.5,6.44-14.04,8.01-21.47.02-.11-.15-.16-.18-.05-1.94,7.51-5.1,14.17-8.78,20.96-.34.62.58,1.16.95.55Z"/>
  <path class="cls-1" d="M33.66,121.37c.12-.14-.06-.33-.21-.21-23.54,20.57-31.02,56.45-19.57,85.37.54,1.37,2.75.84,2.26-.62-10.12-30.2-3.07-60.46,17.52-84.54Z"/>
  <path class="cls-1" d="M140.28,225.72c-.41.58.55,1.13.95.56,13.07-18.59,20.75-44.42,12.29-66.42-.08-.21-.46-.21-.43.06,2.59,23.93,1.5,45.47-12.8,65.81Z"/>
  <path class="cls-1" d="M104.16,44.32c-1.73,2.23-2.22,5.06-2.88,7.76-.77,3.17-1.47,6.28-1.51,9.55-.01,1.02,1.43,1.16,1.73.23,1.03-3.19,1.48-6.49,2.12-9.79.5-2.55,1.26-5.06.87-7.67-.02-.14-.25-.2-.34-.09Z"/>
  <path class="cls-1" d="M169.11,56.63c.11-.09-.05-.24-.16-.16-8.51,6.66-13.58,12.58-16.21,23.2-2.06,8.31-1.88,16.58,2.22,24.21.67,1.23,2.47.15,1.87-1.09-7.78-15.86-.46-35.27,12.28-46.16Z"/>
  <path class="cls-1" d="M186.13,65.94c5.59,14.77,7.74,29.72,6.44,45.46-.06.69,1.1.86,1.22.17,2.76-15.86.3-31.63-7.3-45.77-.1-.2-.45-.06-.37.15Z"/>
</svg>