<?xml version="1.0" encoding="UTF-8"?>
<svg id="Layer_1" data-name="Layer 1" xmlns="http://www.w3.org/2000/svg" viewBox="0 0 607.87 334.3">
  <defs>
    <style>
      .cls-1 {
        fill: #211e1f;
      }
    </style>
  </defs>
  <g>
    <path class="cls-1" d="M173.82,313.71c60.13-14.64,108.32-54.82,152.53-96.14,17.12-3.61,34.19-7.47,51.14-11.82,47.41-12.16,94.04-27.32,139.33-45.91,30.79-12.64,63.66-27.05,66.48-64.92.2-2.71-1.74-4.38-3.83-4.75-8.07-23.06-29.09-33.04-52.29-38-36.38-7.77-74.87-10.63-111.87-13.74-34.75-2.92-69.82-4.29-104.78-3.33-28.92-9.18-56.09-22.65-86.09-28.9C193.27-.29,160.99-1.65,129.37,1.96c-14.68,1.68-29.29,4.39-43.53,8.33-7.07,1.96-17.3,4.68-15.73,14.3,1.63,9.97,17.28,15.76,24.71,20.02,12.61,7.21,25.4,14.08,38.29,20.76-6.76,2.79-12.91,6.49-16.91,12.08-3.89,5.44-5.93,12.32-7.04,19.58-.66.15-1.28.27-1.97.44-1.2-1.26-3.04-1.8-4.59-.32-.71.68-1.32,1.43-2,2.13-9.08,2.76-18.55,7.08-24,13.7-2.21-.09-4.57,1.43-4.3,4.31.08.85.21,1.69.3,2.54-4.39,11.28-2.25,25.97-2.07,37.15.25,15.79-.54,30.6,11.61,42.23,10.82,10.35,25.88,13.56,40.06,16.48.61.12,1.14.08,1.61-.06,2.92,7.75,6.61,14.97,11.76,20.2,6.01,6.1,14.09,7.45,22.43,7.18-8.24,12.24-16.48,24.47-24.72,36.71-4.99,7.41-20.24,22.21-18.17,32.09,3.47,16.54,48.99,4.27,58.74,1.9ZM575.73,91.29c-.57.59-1.01,1.35-1.1,2.43-2.87,36.57-37.27,48.3-66.5,60.05-1.86.75-3.75,1.43-5.61,2.17,0-19.16-2.68-38.52-5.11-57.47-1.03-8.06-1.61-16.74-4-24.55-2.49-8.14-7.62-14.36-11.69-21.6,6.74.81,13.49,1.62,20.23,2.46,27.98,3.46,61.01,8.43,73.78,36.5ZM106.42,43.82c-6.05-3.38-12.14-6.73-18.08-10.32-6.83-4.12-14.17-9.6-4.96-15.98,5.15-3.57,17.67-4.56,24.05-5.81,6.7-1.31,13.44-2.39,20.22-3.24,13.27-1.66,26.66-2.43,40.03-2.26,27.01.33,54.1,4.31,80.02,11.93,16.82,4.95,33.11,12.83,50.11,17.41-47.22,2.1-94.14,8.72-139.66,22.13-5.06,1.49-10.94,2.89-16.78,4.7-11.75-5.99-23.42-12.13-34.94-18.55ZM135.41,73.11c8.97-3.95,18.94-6.57,28.32-9.29,28.65-8.32,57.91-13.91,87.46-17.39-11.67,21.88-12.72,49.09-25.43,70.23-4.48-.44-14.46,1.33-15.68,1.45-10.49,1.06-20.97,2.32-31.41,3.79-20.74,2.93-41.53,6.42-61.94,11.21-.43-11.53-.11-23.11,1.4-34.48,1.58-11.9,5.93-20.54,17.27-25.53ZM94.47,186.44c-.05-.18-.1-.36-.15-.54,1.1,1.44,2.21,2.88,3.46,4.24-1.44-.32-2.89-.63-4.33-.95.8-.57,1.35-1.56,1.02-2.75ZM93.15,108.42c-.76,1.14-1.4,2.33-2.09,3.51-.61-.48-1.34-.87-2.25-1.09,1.39-.85,2.84-1.65,4.33-2.42ZM100.64,125.5c-.9.24-1.7.85-2.1,2.07-1.08,3.28-1.97,6.54-2.73,9.82-.35-1.03-.73-2.06-1.1-3.09.12-4.29.12-8.67-.39-13.2,1.78-3.93,4.01-7.68,6.66-11.19-.13,5.19-.24,10.39-.34,15.58ZM84.38,127.47c-.78,2.68-1.43,5.38-1.88,8.12-.67-5.71-1.34-11.42-2.04-17.13.78-1.16,1.67-2.25,2.7-3.24.31,4.11.78,8.18,1.23,12.25ZM114.79,183.31c-.1.37-.2.75-.18,1.2.28,5.41.53,10.81.77,16.22-.73-.19-1.51-.39-2.34-.6,2.1-1.17,2.91-4.66.59-6.16-.44-.28-.81-.62-1.24-.92-.1-4.42-1.21-8.43-3.76-12.2-.4-1.33-.79-2.66-1.16-3.99-.02-.06-.06-.09-.08-.15.02-.07.07-.13.08-.2,2.01-12.65,2.05-24.89.15-37.23.07-5.13.22-10.26.32-15.39.01,1.26.03,2.55.03,3.74.08,18.76,2.43,37.45,6.81,55.69ZM108.42,103.22c.02-.74.03-1.48.05-2.22.05-.03.11-.06.16-.09-.08.77-.15,1.54-.21,2.32ZM77.2,157.49c.35,2.88.7,5.77,1.05,8.66.72,5.9.31,18.3,7.87,20.48,1.36.39,2.54.42,3.55.17.17.48.34.97.52,1.46.04.11.1.16.15.25-1.1-.24-2.21-.48-3.31-.73-1.53-.34-2.98.66-3.69,1.98-6.42-9.32-5.98-20.91-6.14-32.27ZM121,208.29c.08-.06.16-.1.23-.16.02.08.05.15.07.22-.1-.02-.2-.04-.3-.06ZM160.72,233.68c-18.33-.77-23.46-9.92-28.79-24.02-6.86-18.13-11.42-37.05-13.7-56.29-.59-4.94-1-9.93-1.3-14.93,20.79-3.99,41.48-8.11,62.46-11.09,10.44-1.48,20.9-2.82,31.39-3.95,5.81-.63,14.43.59,19.09-3.27.4-.33.71-.9.59-1.44-.04-.2-.09-.39-.13-.59,7.11-8.21,9.26-20.83,12.52-30.86,4.36-13.38,10.22-27.14,11.95-41.21,45.45-5.08,91.54-5.21,137.08-2.42,29.23,1.79,58.33,4.93,87.39,8.41,1.36,5.34,3.49,10.12,5.53,15.33,3.98,10.21,4.87,21.15,6.23,31.96,2.46,19.46,3.36,39.24,6.38,58.61-29.52,11.48-59.53,21.62-89.96,30.41-43.22,12.48-87.16,22.22-131.48,29.87-5.18-10.58-11.81-20.51-17.93-30.56-7.34-12.06-14.22-25.02-23.68-35.54-.95-1.06-2.73-.12-2.19,1.28.02.06.06.12.08.18-.02.16-.06.3,0,.49-.49-1.31-48.47,7.38-53.64,8.19-17.43,2.7-34.85,5.4-52.28,8.1-3.37.52-2.69,5.79.69,5.26,23.23-3.65,46.47-7.21,69.68-10.97,8.11-1.31,28.19-1.06,34.75-6.2.94-.73,1.61-1.11,2.22-1.67,4.53,10.38,10.88,19.96,16.7,29.64,6.56,10.91,12.79,22.35,20.18,32.77-28.04,4.73-56.22,8.63-84.47,11.83-8.18.93-17.14,3.04-25.38,2.69ZM126.63,311.33c-5.64-6.55,15.62-31.39,18.88-36.23,7.26-10.78,14.51-21.56,21.77-32.35.13-.2.15-.39.24-.59,3.91-.5,7.73-1.11,11.27-1.49,22.44-2.41,44.84-5.25,67.16-8.59,23.58-3.53,47.08-7.67,70.45-12.41-34.39,29.17-69.99,58.26-111.78,75.78-11.95,5.01-24.3,9.09-36.96,11.88-5.05,1.11-37.1,8.55-41.04,3.98Z"/>
    <path class="cls-1" d="M239.67,28.84c-20.02-9.11-44.76-9.53-66.37-9.24-26.02.35-51.91,3.69-77.66,7.2-2.64.36-2.11,4.45.54,4.11,23.13-3.01,46.29-6.14,69.62-7,25.34-.93,48.66,3.53,73.6,5.91.57.05.81-.74.27-.98Z"/>
    <path class="cls-1" d="M272.99,238.52c-39.39,31.58-79.46,51.72-128.34,64.17-2.53.65-2.18,4.6.54,4.15,47.23-7.68,95.82-32.7,129.46-66.66.96-.96-.64-2.49-1.67-1.66Z"/>
    <path class="cls-1" d="M74.97,204.52c-17.64-25.07-21.03-61.12-11.54-90.17.05-.17-.16-.32-.28-.16-3.74,4.79-5.86,10.65-7.06,16.88-.13-.16-.31-.28-.55-.32-9.39-1.46-21.34-3.63-29.12,3.54-3.13,2.88-3.88,5.81-4.84,9.76-3.05,12.41-7.01,20.76-20.08,25.29-2.73.95-1.4,4.96,1.28,4.73,24.11-2.1,36.19,27.29,60.1,25.65,1.98-.14,1.89-3.11.02-3.41-19.84-3.15-32.48-22.26-51.12-26.4,4.89-3,9.02-6.99,11.69-12.43,1.95-3.97,1.35-9.12,3.11-12.72,2.68-5.46,10.28-10.39,15.99-11.35,4.14-.69,8.75-.25,12.96-.8.15-.02.24-.12.34-.19-.32,1.91-.57,3.83-.74,5.77-4.55-1.18-9.24,2.02-12.55,5.11-6.21,5.79-11.62,13.26-16.27,20.33-1.26,1.91,1.43,4.04,2.84,2.18,7.2-9.51,13.88-21.6,25.77-25.04-.36,6.4-.09,12.82.29,18.61,1.12,17.38,6.27,33.5,16.62,47.58,1.51,2.06,4.59-.34,3.12-2.42Z"/>
    <path class="cls-1" d="M354.07,173.15c23.81-.37,50.98-19.1,55.36-43.36.65.45,1.68.34,1.73-.67,1.43-28.12-19.51-55.47-48.11-58.65-31.79-3.54-52.67,20.56-56.01,50.38-3.13,27.98,18.22,52.74,47.03,52.29ZM314.68,115.14c5.38-25.9,25.99-43.48,53.03-37.12,20.16,4.75,31.32,21.03,37.71,39.18-1.03.51-1.78,1.54-1.63,3,2.77,26.74-28.74,48.52-53.25,46.36-26.93-2.38-41.09-26.29-35.86-51.43Z"/>
    <path class="cls-1" d="M413.46,98.1c.53,4.01,6.75,3.2,6.23-.82-.52-4.01-6.75-3.2-6.23.82Z"/>
    <path class="cls-1" d="M419.91,132.09c2.72.75,4.31-2.26,2.97-4.41-.16-.26-.32-.52-.48-.77-.36-.59-1.2-.67-1.78-.47-.35.12-.7.25-1.05.37-2.54.89-2.03,4.63.35,5.28Z"/>
    <path class="cls-1" d="M410.25,154.11c.12.93.73,1.55,1.51,1.85,1.46,1.48,4.74.69,4.88-1.65.01-.18.02-.37.03-.55.06-1.01-.21-2.16-1.13-2.75-.15-.1-.3-.19-.45-.29-1.32-.85-3.07-.8-4.09.54-.71.93-.89,1.7-.75,2.85Z"/>
    <path class="cls-1" d="M388.26,172.72c.35,2.67,4.5,2.13,4.15-.54-.35-2.67-4.5-2.13-4.15.54Z"/>
    <path class="cls-1" d="M364.84,181.79c.32,2.46,4.15,1.97,3.83-.5-.32-2.46-4.15-1.97-3.83.5Z"/>
    <path class="cls-1" d="M342.43,179.19c-2.32.3-3.83,3.34-2.15,5.22.14.16.28.32.43.48,1.46,1.65,3.87,1.33,4.86-.64.09-.19.19-.38.29-.58,1.13-2.25-1.1-4.8-3.42-4.49Z"/>
    <path class="cls-1" d="M318.75,177.1c1.04-.59,1.61-1.64,1.15-2.83-.07-.17-.14-.35-.2-.52-.49-1.26-1.72-1.69-2.94-1.68-.25,0-.5,0-.75,0-2.32,0-2.72,3.24-1.2,4.48.2.17.41.33.61.5.7.57,1.97.82,2.79.36.18-.1.36-.2.54-.3Z"/>
    <path class="cls-1" d="M300.61,157.62c-.7.25-1.16.51-1.75.94-1.27.92-.99,3.07.47,3.62.69.26,1.2.4,1.93.46,4.32.36,3.45-6.49-.66-5.02Z"/>
    <path class="cls-1" d="M292.46,130.05c-.45.17-.89.34-1.34.51-2.19.84-1.74,4.33.6,4.58.48.05.95.1,1.43.15,4.52.48,3.58-6.89-.69-5.25Z"/>
    <path class="cls-1" d="M298.23,106.42c-.03-.09-.06-.18-.09-.27-.99-2.84-5.23-2.01-5.64.74.1-.66-.14.56-.15.69-.07.82.18,1.78.92,2.26.09.05.17.11.25.16.47.3,1.05.39,1.61.33,2.11.47,3.8-1.91,3.1-3.9Z"/>
    <path class="cls-1" d="M308.55,82.29c.02-.05.05-.11.07-.16.9-2.06-1.41-4.67-3.56-3.56-.1.05-.21.11-.32.16-2.35,1.21-1.86,4.35.65,4.95.16.04.33.08.49.12,1.07.29,2.26-.59,2.66-1.51Z"/>
    <path class="cls-1" d="M332.6,62.18c-.52-.61-1.05-1.15-1.62-1.7-2.1-2.04-4.92.91-4.13,3.19.15.53.36,1.04.62,1.52,1.88,4.03,7.9.29,5.14-3.01Z"/>
    <path class="cls-1" d="M360.18,57.04c-.37-2.82-4.75-2.25-4.38.57.37,2.82,4.75,2.25,4.38-.57Z"/>
    <path class="cls-1" d="M387.37,65.25c.16-.81-.26-1.9-.96-2.35-.99-.63-2.1-.75-3.06-.43-2.18-.05-4.35,2.93-1.95,5.02,2.27,1.99,5.41.49,5.97-2.25Z"/>
    <path class="cls-1" d="M398.85,78.25c.4,3.06,5.15,2.44,4.75-.62-.4-3.06-5.15-2.44-4.75.62Z"/>
    <path class="cls-1" d="M505.49,72.67c8.49,2.93,17.85,2.83,26.56,5.35,10.6,3.07,21.38,7.49,30.6,13.54.5.32,1.05-.37.57-.74-14.7-11.47-38.25-24.99-57.74-19.1-.42.13-.4.81,0,.94Z"/>
    <path class="cls-1" d="M515.44,139.22c-.26.1-.15.55.13.49,14.97-3.26,27.11-13.11,35.27-25.82.35-.55-.43-1.17-.81-.62-8.66,12.44-20.67,20.46-34.6,25.95Z"/>
  </g>
  <path class="cls-1" d="M393.39,118.87c-2.11-15.82-18.82-26.76-33.75-28.35-17.03-1.82-30.64,7.8-35.34,24.05-.52,1.79,2.04,2.46,2.91,1.04,3.45-5.64,5.78-11.35,11.09-15.55,6.97-5.53,16.74-6.53,25.23-4.67,13.92,3.04,21.49,12.46,28.47,23.95.38.62,1.48.29,1.38-.46h0Z"/>
  <path class="cls-1" d="M374.55,110.42c-4.46-8.48-15.15-10.97-23.23-5.88-1.91,1.2,0,4.03,1.93,2.9,6.64-3.88,15.62-2.24,20.78,3.43.28.32.69-.13.52-.45h0Z"/>
  <path class="cls-1" d="M385.65,137.92c-6.19,10.33-15.07,14.8-26.19,18.03-1.1.32-.65,1.81.36,1.85,11.77.51,22.8-8.91,27.04-19.27.33-.81-.76-1.37-1.21-.62h0Z"/>
  <path class="cls-1" d="M458.2,48.68c1.04,19.02,6.41,38.34,9.42,57.16,3.06,19.12,5.78,38.29,8.1,57.51.31,2.57,4.35,2.35,4.03-.23-2.49-19.99-5.33-39.94-8.79-59.79-3.14-18.03-5.32-37.71-11.77-54.85-.2-.53-1.03-.4-1,.19h0Z"/>
  <path class="cls-1" d="M484.98,163.13c-.34-29.27-4.74-58.76-7.77-87.87-1.4.27-2.79.54-4.19.81,5.01,14.76,8.86,29.81,11.35,45.21,1.43,8.86.7,18.97,7.07,25.9,1.52,1.65,4.08-.03,4.04-1.95-.6-32.38-5.51-64.38-13.33-95.77-1.02.5-2.04,1-3.07,1.5,3.81,6.85,5.86,14.12,7.79,21.65.48,1.88,3.35,1.21,3.28-.64-.27-6.99-1.22-13.72-2.68-20.55-.18-.83-1.17-1.09-1.87-.92-4.19,1-8.36,1.92-12.58,2.76-.66.13-1.22,1.02-1.13,1.68,2.41,16.71,5.32,33.35,7.9,50.03,1.4-.08,2.8-.16,4.2-.24-3.48-18.59-7.95-36.96-13.35-55.09-.7-2.35-4.54-1.65-4.27.83,2.66,24.18,6.49,48.06,11.92,71.77,1.46-.49,2.92-.99,4.38-1.48-4.17-17.88-7.84-35.85-10.94-53.95-1.45.48-2.91.97-4.36,1.45,17.74,22.42,25.04,50.59,19.92,78.77,1.53-.09,3.06-.18,4.58-.26-2.21-4.79-4.42-9.57-6.63-14.36-1.05-2.27-5.17-2.04-4.74.92,1.08,7.5,2.71,14.61,5.06,21.83.73,2.24,3.49,2.04,4.62.34,3.43-3.32,3.37-3.36-.16-.14-1.76,3.16-3.24,3.21-4.45.15-1.85-1.56-1.94-10.65-2.47-13.55-2.06-11.29-4.12-22.58-6.18-33.87-3.75-20.54-7.63-41.05-11.63-61.55-1.24.82-2.49,1.65-3.73,2.47,4.7,4.07,17.41,13.95,15.84,21.35-.38,1.77-2.65,2.67-3.05,5.18-1.07,6.61,3.24,15.02,4.35,21.5,1.71,9.96,2.52,20.05,3.35,30.11.25,2.98,4.93,2.72,4.65-.27-.98-10.25-1.95-20.52-3.83-30.65-.93-5.03-4.18-11.78-4.14-16.74-.84-3.39-.17-5.55,2.02-6.49.51-.28.98-.62,1.41-1,1.82-9.6-10.85-20.32-17.52-26.44-1.36-1.25-4.2-.18-3.85,1.86,4.03,23.37,8.23,46.69,12.54,70.01,2.08,11.29,4.17,22.58,6.25,33.87.93,5.03.54,10.38,5.01,13.41.73.49,1.91.32,2.6-.15,3.76-2.6,13.94-8.89,10.57-14.67-3.54-6.09-9.84-.05-12.05,3.34,1.54.11,3.08.22,4.62.34-2.26-6.79-3.88-13.41-4.96-20.5-1.58.31-3.16.61-4.74.92,2.24,4.77,4.49,9.55,6.73,14.32.91,1.95,4.14,2.28,4.58-.26,5.14-29.43-2.06-58.92-20.61-82.41-1.3-1.64-4.8-1.11-4.36,1.45,3.15,18.52,6.9,36.9,11.32,55.16.7,2.89,5.06,1.39,4.38-1.48-5.52-23.23-9.64-46.77-11.92-70.54-1.42.28-2.85.55-4.27.83,5.09,18.02,9.53,36.16,13.42,54.47.49,2.3,4.52,1.54,4.1-.79-2.17-12.11-4.25-24.23-6.34-36.35-.51-2.96-3.92-17.19,4.72-14.11,5.27,1.87,4.3,13.77,4.42,17.91,1.09-.21,2.19-.42,3.28-.64-2.04-7.87-4.36-15.25-8.11-22.47-.97-1.86-3.46-.24-3.07,1.5,6.99,31.29,10.45,62.94,11.74,94.95,1.35-.65,2.7-1.3,4.04-1.95-7.01-6.92-6.39-26.21-8.43-35.76-2.4-11.21-5.56-22.22-9.14-33.1-.75-2.26-4.43-1.64-4.19.81,2.88,29.15,4.49,58.95,10.01,87.74.24,1.26,2.06,1.24,2.05-.12h0Z"/>
  <path class="cls-1" d="M111.61,196.51c1.41.43,1.74.33,2.96-.46.63-.4.93-1.28.68-1.99-3.53-9.74-5.92-19.53-7.8-29.71-.46-2.49-4.43-3.4-4.89-.38-.72,4.78-1.38,9.58-2.07,14.36-.49,3.46-.18,9.91-4.8,9.99-5.08.09-8.74-4.13-13.78-.94-2.22,1.4-.46,5.04,2.03,4.15,5.97-2.14,12.22,5.17,17.79-.23,2.26-2.19,2.66-5.35,3.11-8.32.89-5.98,1.75-11.97,2.55-17.96-1.59.09-3.17.18-4.76.27.6,2.7,5.7,29.21,9.17,28.72-1.43.2-1.58,2.08-.19,2.5h0Z"/>
  <path class="cls-1" d="M143.06,169.69c-8.57.39-17.16,1.05-25.46,3.4-2.13.6-1.49,4.25.76,3.89,8.45-1.36,16.71-3.76,25.01-5.76.88-.21.57-1.57-.3-1.53h0Z"/>
  <path class="cls-1" d="M448.63,59.72c-15.75-1.86-32.77-3.81-48.59-2.74-.85.06-.99,1.37-.12,1.52,15.66,2.81,32.73,2.74,48.59,2.63.79,0,.92-1.32.11-1.41h0Z"/>
  <path class="cls-1" d="M378.27,188.61c1.22-.4,2.43-.8,3.65-1.21,1.08-.36.51-1.89-.56-1.65-33.97,7.7-67.93,13.53-102.51,17.61-.93.11-.86,1.54.08,1.46,18.03-1.43,36.12-3.9,53.95-6.88,7.55-1.26,15.07-2.74,22.57-4.3,5.95-1.24,17.83-1.87,22.61-5.46-.21.16-.06.51.21.42h0Z"/>
  <path class="cls-1" d="M224.62,59.76c-30.45,5.11-67.35,8.47-92.79,27.53-1.55,1.16.06,3.66,1.68,2.54,26.16-18.1,61.17-21.12,91.18-29.71.2-.06.14-.39-.07-.36h0Z"/>
  <path class="cls-1" d="M228.49,168.77c-30.78,4.41-63.16,9.92-93.11,18.18-1.03.28-.71,1.99.36,1.86,30.86-3.84,62.85-11.15,92.98-18.86.65-.17.45-1.27-.23-1.18h0Z"/>
  <path class="cls-1" d="M121.84,333.18c-11.2-2.44-19.62-12.29-19.9-23.77-.05-2.04-3.02-1.78-3.11.18-.62,13.08,9.87,24.49,22.93,24.71.65.01.7-.99.09-1.12h0Z"/>
  <path class="cls-1" d="M600.77,108.4c2.16-15.38-2.37-30.71-11.1-43.43-9.65-14.05-19.98-16.87-35.7-21.35-.9-.26-1.52,1.03-.82,1.61,3.19,2.62,5.94,3.33,9.79,4.5,10.01,3.04,16.24,7.27,22.62,15.71,9.57,12.63,13.95,27.13,13.94,42.86,0,.72,1.17.82,1.27.1h0Z"/>
  <path class="cls-1" d="M607.86,80.35c-1.67-11.13-8.76-22.54-17.58-29.43-.86-.67-1.87.48-1.12,1.26,8.29,8.68,12.77,17.49,17.42,28.42.27.64,1.4.54,1.28-.25h0Z"/>
  <path class="cls-1" d="M57.09,11.2c-11.75,15.11-3.29,40.76,16.3,44.11,1.27.22,1.96-1.54.77-2.16-17.05-8.77-23.76-23.03-16.53-41.59.12-.32-.29-.69-.54-.37h0Z"/>
  <path class="cls-1" d="M41.3,37.65c.98,4.75,2.9,9.12,5.73,13.05.57.78,1.83-.05,1.25-.83-2.82-3.81-4.72-8.01-5.73-12.64-.18-.83-1.42-.4-1.25.42h0Z"/>
  <path class="cls-1" d="M333.29,231.81c-9.57,10.47-17.97,20.94-29.03,30.04-9.9,8.14-20.69,15.47-29.84,24.46-.77.76.34,1.96,1.22,1.4,12.69-8.16,24.75-18.58,36.07-28.56,8.7-7.67,17.05-16.39,22.7-26.58.38-.68-.6-1.32-1.11-.76h0Z"/>
  <path class="cls-1" d="M328.73,255.07c-5.31,7.17-11.09,13.94-17.62,20.03-1.07,1,.63,2.5,1.7,1.51,6.64-6.14,12.45-12.97,17.12-20.72.42-.71-.7-1.49-1.2-.82h0Z"/>
</svg>