<?xml version="1.0" encoding="UTF-8"?>
<svg id="Layer_1" data-name="Layer 1" xmlns="http://www.w3.org/2000/svg" viewBox="0 0 308.4 335.05">
  <defs>
    <style>
      .cls-1 {
        fill: #211e1f;
      }
    </style>
  </defs>
  <g>
    <path class="cls-1" d="M186.08,282.56c.65.69,1.55,1.21,2.92,1.45.94.17,1.65-.35,1.81-1.25.53-.08,1.05-.19,1.57-.31.91-.21.77-1.63-.1-1.72.39-.19.67-.58.69-1.18.04-2.11,1.28-13.22.7-22.32.2-4.13.33-8.28,0-12.32-.04-.53-.53-1.05-1.11-.85-1.44.5-3.09.42-4.6.46-.21,0-.28.18-.26.33-.41.05-.85.15-1.32.34,0-.38.02-.76.02-1.13,0-.68-.97-.65-1.04,0-.07.61-.1,1.23-.16,1.84-.11.17-.13.35-.05.52-.48,4.96-.81,9.94-1.07,14.92-.28,5.2-2.05,12.86-.9,17.86.43,1.87,1.52,2.86,2.91,3.35ZM189.36,247.77c.79.82,1.27,2.04,1.53,3.47-.35-.21-.78-.28-1.17-.18-.1-1-.16-2-.27-3-.01-.11-.06-.19-.08-.29ZM191,280.72h0s0,0,0,0h0ZM188.6,270.95c-.1,2.62-.24,5.24-.42,7.86-.91-3.5-.66-10.32-.14-16.74.22,2.96.41,5.92.55,8.88ZM189.68,245.21c.74.06,1.47.16,2.17.35-.08.62-.13,1.24-.19,1.86-.53-1.03-1.19-1.78-1.98-2.21ZM187.63,246.81c-.47.15-.86.56-.91,1.24-.15,2.17-.31,4.34-.47,6.51.09-2.61.1-5.22.11-7.83.46-.04.89-.01,1.27.07Z"/>
    <path class="cls-1" d="M175.53,216.42c-.14.05-.18.29,0,.32,7.06,1.07,14.62.4,21.77.06,1.61-.08,1.62-2.45,0-2.51-7.14-.24-15-.18-21.77,2.13Z"/>
    <path class="cls-1" d="M228.54,224.35c.11-3.02.22-6.02.56-9.02.29-2.53,1.12-5.15.73-7.68-.03-.18-.27-.17-.35-.05-1.54,2.31-1.73,5.44-2.14,8.14-.44,2.85-.75,5.72-.86,8.61-.05,1.32,2.01,1.32,2.06,0Z"/>
    <path class="cls-1" d="M226.77,239.87c0-.23-.31-.39-.48-.2-3.21,3.59-2.6,10.62-2.79,15.17-.29,7.11-.05,14.28,1.09,21.31.2,1.27,2.37.98,2.26-.31-.55-6.13-1.17-12.21-1.12-18.37.05-5.87,1.17-11.76,1.04-17.6Z"/>
    <path class="cls-1" d="M137.46,111.28c-9.86,4.49-25.21,1.64-35.42-.08-.83-.14-1.19,1.04-.35,1.28,7.9,2.2,15.89,3.1,24.09,2.77,3.85-.16,10.02.39,12.47-3.17.36-.53-.32-1.01-.79-.79Z"/>
    <path class="cls-1" d="M115,119.84c-2.18-.24-4.35-.34-6.51-.81-1.74-.38-3.39-1.08-5.14-1.31-.58-.08-.92.81-.48,1.17,3.02,2.49,8.32,3.36,12.14,2.96,1.3-.14,1.29-1.87,0-2.01Z"/>
    <path class="cls-1" d="M111.61,127.46c-2.62-.79-5.41-1.03-8.11-1.43-.61-.09-.9.81-.26.96,2.7.65,5.43,1.47,8.2,1.72.74.07.84-1.06.17-1.26Z"/>
    <path class="cls-1" d="M107.57,132.98c-1.27-.51-2.53-.52-3.78-1.2-.87-.48-1.64.83-.78,1.33,1.31.75,3.07,1.51,4.56.9.5-.2.5-.82,0-1.03Z"/>
    <path class="cls-1" d="M101.13,138.14c-.32.06-.64.13-.96.19-.69.14-.69,1.25,0,1.39.32.06.64.13.96.19,1.49.3,1.5-2.08,0-1.78Z"/>
    <path class="cls-1" d="M307.25,128.47c-.18-2.56-.72-5.4-2.24-6.93-.26-.6-.82-.97-1.43-.9-.55-.19-1.19-.26-1.91-.17-.09-.84-.18-1.68-.33-2.51-.53-3.01-1.49-6.02-3.33-8.49-1.98-2.65-5.08-3.85-7.4-6-.87-8.18-3.28-15.93-9.36-20.61-10.34-7.96-25.74-6.93-37.98-8.72-16.08-2.34-31.91-6.3-47.23-11.73-23.9-8.48-47.32-20.81-68.14-36.2-.09-.12-.17-.24-.26-.36-6.55-8.24-15.96-17.8-26.5-22.67-.78-.79-1.59-1.56-2.36-2.36-.65-.67-1.62.16-1.32.89-6.84-2.35-14.05-2.56-21.19.98-.97.48-1.27,1.31-1.16,2.11C45.46,14.66,24.13,42.86,15.56,72.49c-6.45,22.29-6.94,45.91-4.75,68.87,1.98,20.65,4.95,42.72,15.85,60.8,8.95,14.83,24.75,26.94,42.63,27.23,1.56.03,3.08-.07,4.59-.23.47.32,1.09.46,1.8.28,29.89-7.59,60.44-11.22,90.99-14.84,7.6,10.8,6.46,24.44,5.88,37-.69,15.07-2.21,30.1-4.7,44.98-1,5.98-3.53,12.78-3.52,18.81.01,3.28.51,5.5,3.27,7.58.87.66,1.83,1.24,2.79,1.81,0,.08-.02.17-.03.25-.11,1.12,1.2,1.38,1.89.79,7.1,3.67,16.02,5.49,23.95,6.58.32.52,1.1.59,1.54.21,1.33.17,2.63.33,3.87.47.08,0,.14-.02.22-.02-.22.11-.46.21-.67.32-.96.49-.26,1.83.69,1.64,11-2.11,24.17-8.12,32.71-15.49,7.16-6.18,3.76-15.77,2.44-23.84-.78-4.79-1.4-9.59-1.93-14.4,1.62-.58,1.02-2.68-.28-2.79-2.45-24.39-1.72-48.92,2.19-73.22.06-.35-.01-.66-.13-.93,3.97-.8,7.93-1.63,11.88-2.55,7.51-1.75,16.24-3.11,22.38-8.16,4.69-3.86,7.1-9.38,9.19-14.93.03-.07.05-.14.07-.2,10.95-.5,15.95-9.54,18.29-19.43.16-.03.33-.07.51-.16,9.8-4.6,9.21-19.84,9.23-28.99,0-.83-.53-1.31-1.15-1.47ZM302.61,130.57c-.05,2.15-.21,4.34-.43,6.54.15-1.68.22-4.1.43-6.54ZM301.82,140.08c.08-.6.15-1.19.23-1.79-.07.6-.15,1.19-.23,1.79ZM302.1,121.84c-.09.13-.19.25-.27.39-.01-.19-.02-.38-.03-.57.11.05.2.12.3.18ZM31.08,201.02c-10.57-16.32-13.69-36.65-15.83-55.6-2.24-19.94-2.66-40.38,1.18-60.16C23.09,50.93,44.28,19.22,77.15,6.96c.47.08.96.07,1.48-.19,10.28-5.1,20.96-.84,30.16,6.37,2.7,2.58,5.45,5.09,8.24,7.54,4.4,4.6,8.17,9.47,11.02,13.59,9.57,13.86,15.76,29.92,18.58,46.5,1.18,6.96,1.72,13.95,1.68,20.91-8.58,2.52-17.77,2.25-26.69,2.16-10.58-.1-20.27-1.86-30.37-4.88-.51-.15-.95.01-1.29.31-15.93-5.04-24.05,37.04-12.95,44.47.64.43,1.26.69,1.87.87.13.11.29.2.49.23,18.81,3.64,36.01,10.03,51.23,21.93.3.23.61.33.93.37-3.39,6.68-7.18,13.15-11.35,19.32-9.99,14.78-23.2,32.3-41.36,37.1-19.07,5.03-37.66-6.99-47.75-22.56ZM133.04,164.11c-13.93-10.77-30.45-18.68-47.98-21.14,3.62-3.06,6.34-8.96,7.63-12.01,4-9.5,4.03-19.78-1.16-28.65,9.33,4.09,20.04,4.8,30.09,4.86,8.77.05,18.32.51,26.6-2.78-.57,20.66-6.17,41.01-15.19,59.72ZM87.86,102.48c4.01,6.08,5.32,12.89,3.93,20.07-.6,3.09-1.69,6.14-3.03,8.98-1.94,4.11-2.43,6.09-6.39,6.3.11-10.73.95-20.45,4.18-31.08.24-.79-1.01-1.35-1.36-.57-4.31,9.41-6.62,21.05-5.25,31.59-4.7-.41-3.98-2.29-4.23-7.78-.14-2.92.05-5.75.47-8.64.97-6.63,3.57-18.41,11.52-20.18-.15.39-.13.84.18,1.31ZM115.55,200.65c25.71-32.5,41.87-74.37,36.34-116.19-2.37-17.93-8.59-35.4-18.51-50.54,10.96,8.13,22.6,15.37,35.2,21.53,5.16,2.52,10.41,4.81,15.72,6.97,3.71,25.62,6.1,50.3,2.76,76.17-3.23,25.03-10.95,49.24-22.63,71.59-22.93,2.72-45.85,5.54-68.49,10.03,7.51-5.4,14.03-12.51,19.6-19.56ZM175.19,270.75c1.09-11.66,2.1-23.62,1.51-35.33,7.64,2.63,16.85,4.04,24.96,3.8-.85,17.03-.78,34.16-.18,51.24-.03,0-.06-.01-.09,0-9.31,1.09-18.85-2.13-28.03-3.91.71-5.25,1.33-10.52,1.83-15.79ZM230.97,277.43c.08.88.18,1.76.26,2.64-8.34,4.05-17.51,6.28-26.01,10-.39-17.05-.31-34.08-.18-51.15,8.03.59,17.8-3,24.85-5.47.43-.15.64-.49.7-.85-1,14.92-.91,29.9.38,44.83ZM232.65,292.4c.09.69.22,1.39.34,2.09-.23-.03-.47-.02-.74.09-5.71,2.36-11.25,4.76-17.31,6.11-3.12.7-6.52.86-9.33,2.3-.14-3.53-.25-7.06-.34-10.59,9.18-1.91,17.54-6.31,26.21-9.74.34,3.25.71,6.5,1.16,9.74ZM173.09,288.6c9.03,2.46,19.01,5.51,28.3,4.43.07,0,.12-.04.18-.06.12,3.07.25,6.14.4,9.21-10.66-.35-20.13-3.12-29.86-7.19.34-2.13.68-4.26.98-6.4ZM201.61,329.04c-1.21-.14-2.42-.32-3.62-.49-.09-6.21-.27-12.4-.57-18.61-.02-.47-.71-.47-.73,0-.29,6.12-.47,12.22-.56,18.34-1.85-.3-3.68-.66-5.5-1.07,1.03-5.3.72-11.7-.54-16.59-.16-.61-1-.44-1.05.14-.25,3.13-.09,6.28-.26,9.42-.11,2.13-.42,4.29-.6,6.43-1.18-.3-2.35-.62-3.52-.97-.11-2.86-.64-5.8-.93-8.57-.31-2.89-.22-6.26-1.82-8.73-.09-.15-.29-.1-.35.05-1.23,3.08-.3,7,0,10.25.18,2.02.26,4.12.49,6.18-.34-.11-.69-.2-1.03-.32-2.13-.75-5.59-1.61-7.98-2.91.58-4.9,1.37-9.78,2.08-14.65.09-.62-.74-.88-.96-.26-1.57,4.35-2.54,8.78-3.19,13.31-3.67-3.86-1.93-7.93-1.1-12.16.69-3.51,1.31-7.03,1.89-10.55,9,5.74,19.75,8.25,30.39,8.47.28,5.45.59,10.89.93,16.31.14,2.24,3.65,2.25,3.5,0-.37-5.5-.64-10.99-.87-16.48,9.6-1.65,19.21-2.94,27.81-7.96.03-.02.04-.04.07-.06,1.08,5.2,2.23,10.55.49,15.25-.2-.77-.4-1.54-.55-2.32-.36-1.77-.27-3.75-1.28-5.29-.15-.23-.56-.29-.69,0-.79,1.66-.35,3.52-.1,5.29.25,1.77.63,3.51,1.08,5.24-.51.71-1.07,1.41-1.78,2.08-.11.1-.24.19-.35.29-1.03-3.96-2.08-7.86-2.62-11.95-.14-1.06-1.75-1.15-1.73,0,.1,4.58.66,9.35,2.25,13.69-1.19.92-2.44,1.79-3.77,2.59-.42-4.98-1.43-10.1-2.51-14.97-.22-1-1.89-.8-1.81.24.39,5.11.92,10.46,2.03,15.47.04.18.12.32.21.44-.88.48-1.76.96-2.67,1.42-.23-2.63-.74-5.23-1.16-7.84-.52-3.22-.71-6.62-1.78-9.7-.24-.7-1.23-.57-1.28.17-.2,3.25.52,6.59.89,9.83.32,2.88.5,5.78,1.1,8.62-1.27.59-2.56,1.17-3.85,1.73-.25-6.51-.68-13.15-1.85-19.52-.12-.65-1.05-.44-1.09.15-.47,6.74-.1,13.7.41,20.47-2.76,1.17-5.45,2.32-8.01,3.53.77-1.1.26-3.19-1.56-3.39ZM230.61,232.37c-.02-.62-.51-1.21-1.27-.96-4.76,1.53-9.56,2.9-14.46,3.89-3.2.65-6.62.89-9.82,1.72.04-5.23.09-10.45.12-15.69.01-1.5-2.16-1.45-2.3,0-.46,5.01-.81,10.04-1.09,15.08-8.26-1.32-16.87-2.28-25.21-2.8-.52-7.13-2.17-13.8-6.56-19.43,8.11-.96,16.22-1.93,24.32-2.99,13.17-1.72,26.31-3.69,39.35-6.21-1.44,9.09-2.47,18.22-3.09,27.39ZM214.45,187.92c10.13,3.09,21.28-.11,31.49-2.06-1.21,2.7-2.37,5.34-4.15,7.76-1.81,2.46-4.02,4.34-6.33,6.23-9.67,1.95-19.4,3.59-29.16,5.01,4.27-4.7,7.31-11.04,8.15-16.93ZM247.47,197.26c-2.51.59-5.04,1.09-7.56,1.62,3.77-3.57,6.79-8.46,7.8-13.14.02-.08-.03-.14-.04-.21,0,0,.01,0,.02,0,1.37-.24,1.07-2.57-.33-2.44-11.45,1.05-21.92,5.02-33.56,2.98-.02,0-.03,0-.04,0-.05-.01-.11-.01-.16-.02-.51-.09-.84.23-.92.6-.02.04-.05.07-.06.11-1.31,4.02-2.5,7.86-4.79,11.46-1.79,2.82-4,5.04-6.29,7.3-3.35.47-6.7.94-10.05,1.37-7.18.93-14.37,1.79-21.56,2.64,21.81-43.54,31.58-98.99,16.69-146.15,20.58,8.16,42.18,13.62,64.2,16.1-.07,8.97,2.76,18.56,3.93,27.37,1.42,10.61,2.53,21.28,3.32,31.96,1.44,19.41,1.5,39.34-6.37,57.48-1.4.33-2.82.65-4.23.98ZM256.32,195.11c1.47-3.82,2.63-7.7,3.53-11.63.93-.21,1.9-.27,2.84-.14,1.3.18,1.57-1.69.24-1.79-1-.08-1.88.12-2.74.45.51-2.38.92-4.77,1.25-7.17,1.11-.02,2.23-.07,3.33.12,1.18.2,2.31.72,3.51.46.47-.1.72-.73.46-1.13-1.26-1.94-4.58-2.12-7.04-1.57.38-3.22.64-6.45.77-9.7,2.83.27,5.71.64,8.55.56,1.41-.04,1.32-1.95,0-2.13-2.79-.37-5.67-.32-8.49-.35.11-3.69.08-7.4-.05-11.11,3.16.78,6.3,1.47,9.57,1.85,1.1.13,1.37-1.8.26-1.95-3.31-.45-6.56-.55-9.86-.56-.1-2.62-.24-5.24-.41-7.86-.08-1.22-.22-2.43-.32-3.65,1.65.38,3.36.6,5.01.9,2.02.36,4,.93,6.03,1.24,1.31.2,1.83-1.54.55-2.01-3.42-1.27-7.97-1.94-11.71-1.48-.32-4.05-.66-8.1-1.09-12.14,1.74.26,3.5.42,5.23.71,2.35.39,4.66.96,6.99,1.4,1.08.2,1.54-1.34.46-1.67-3.84-1.18-8.67-2.05-12.86-1.88-.33-2.95-.71-5.9-1.1-8.84,4.25.54,8.51,1.15,12.79,1.46.93.07,1.17-1.52.22-1.65-4.37-.59-8.79-.88-13.19-1.24-.16-1.18-.27-2.37-.44-3.56-.34-2.41-.63-4.94-.94-7.53,2.06.64,4.31.77,6.43,1.14,2.88.5,5.71,1.17,8.57,1.74,1.3.26,1.81-1.56.55-1.99-4.35-1.48-10.95-3.11-15.67-1.94-.38-3.2-.82-6.46-1.39-9.66,5.32,1.07,11.25,2,16.37,1.48,1.03-.1,1.39-1.62.26-1.91-5.29-1.34-11.38-1.5-16.99-1.63-.64-3.14-1.48-6.17-2.58-9,6.39.65,12.95,1.08,19.03,3.29,11.02,4,12.87,13.3,13.65,23.97,1.27,17.39-.22,34.93-4.4,51.85-1.33,5.39-2.81,11.12-4.81,16.53-.22.3-.34.65-.36,1.03-.9,2.35-1.89,4.65-3.05,6.79-3.82,7.03-10.06,9.94-16.97,11.88ZM281.83,174.36c5.42-15.82,8.31-32.59,8.87-49.27.17-5.15.55-11.44.22-17.72,2.26,2.19,4.85,4.1,6.02,7.41,2.09,5.92,1.07,12.81.61,18.92-.96,12.84.42,37.54-15.72,40.66Z"/>
    <path class="cls-1" d="M244.39,84.17c-15.16-.55-29.37-5.66-44.31-7.47-.81-.1-.87,1.11-.18,1.35,14.01,4.93,29.63,8.3,44.5,8.89,1.78.07,1.78-2.7,0-2.77Z"/>
    <path class="cls-1" d="M248.79,98.04c-.12-.59-1.06-.45-1.05.14.86,27.22,5.46,53.16-1.23,80.16-.33,1.32,1.7,1.88,2.03.56,6.42-25.92,5.39-54.77.24-80.86Z"/>
    <path class="cls-1" d="M41.03,50.56c-8.25,16.04-11.79,34.16-14.63,51.82-5.4,33.49-5.62,70.46,15.99,98.65.95,1.24,3.09.02,2.12-1.24-21.24-27.93-21.3-63.61-15.95-96.81,2.7-16.72,5.99-33.82,13.37-49.19,6.76-14.07,16.35-23.17,28.22-32.84.13-.1,0-.33-.16-.28-12.96,4.68-22.89,18.07-28.96,29.89Z"/>
    <path class="cls-1" d="M56.16,43.78c-11.29,8.14-15.26,26.46-17.79,39.18-3.31,16.64-6.43,34.48-2.55,51.28.25,1.08,2.12.87,1.98-.27-2.05-16.71-.65-32.49,2.55-49,1.43-7.39,2.99-14.85,5.74-21.88,2.69-6.88,7.48-12.34,10.45-18.94.1-.22-.13-.55-.37-.37Z"/>
  </g>
  <path class="cls-1" d="M89.96,67.85c-15.57-9.18-30.27-19.64-44.06-31.31-.73-.61-1.64-.07-1.85.72-.22.82-.38,1.64-.56,2.45-1.02.28-1.44,1.7-.53,2.39,0,0,0,0,.01.01-.56,3.15-.79,6.31-.72,9.52-13.8-5.31-27.5-10.36-40.71-17.17-1.35-.7-2.16,1.38-.92,2.12,17.68,10.58,34.96,21.77,51.83,33.6.84.59,1.82-.01,1.82-.99.02-4.36.04-8.71.06-13.07.39.15.78.31,1.16.46,10.95,5.07,22.12,9.56,33.61,13.27,1.35.44,2.08-1.29.87-2ZM55.1,53.49h0s.01,0,.02,0c0,0-.01,0-.02,0ZM48.38,59.48c.01-.06.03-.11.04-.16,0,.06,0,.13,0,.19-.02,0-.03-.02-.04-.02ZM47.98,50.89c-.84.13-1.52.99-1.16,1.8-.26.37-.53.74-.79,1.1.36-2.08.9-4.11,1.63-6.15.36.23.73.47,1.09.7-.26.85-.53,1.7-.77,2.55ZM42.42,55.25c.04.41.28.64.56.74-.02.18-.03.36-.05.54-.02-.01-.04-.02-.07-.04-1.59-.97-3.18-1.94-4.77-2.91-.03-.03-.05-.06-.08-.09,1.42.3,2.87.53,4.35.67.02.36.02.72.05,1.09ZM47.24,61.65s.04-.01.05-.02c.4.06.81.11,1.22.15.07,0,.12-.01.19-.01.05.36.08.71.14,1.07-.53-.4-1.07-.79-1.61-1.19ZM65.76,56.31c.38-.52.42-1.21-.3-1.68-2.84-1.83-5.61-3.74-8.38-5.67.06-.15.1-.31.11-.48,5.65,4.29,11.45,8.39,17.37,12.3-2.96-1.44-5.9-2.93-8.8-4.48ZM34.22,54c.07.25.21.5.51.7.54.35,1.08.71,1.62,1.06.9.99,1.83,1.87,2.83,2.6-4.18-2.81-8.39-5.59-12.62-8.33,2.57,1.3,5.12,2.62,7.67,3.96ZM41.41,59.76c.03.07.09.14.15.2-.47-.32-.95-.64-1.42-.96.42.27.83.52,1.28.76ZM51.72,65.17c-.2-.69-.33-1.37-.47-2.04.16-.17.3-.38.34-.66.22-1.31.38-2.61.5-3.91-.02,2.88-.03,5.76-.05,8.64-.32-.22-.64-.44-.96-.66.48-.23.81-.75.63-1.37ZM46.13,44.45c-.19.13-.35.31-.45.56-.49,1.21-.9,2.43-1.26,3.65.13-1.69.33-3.36.6-5.03.37.28.74.54,1.11.82ZM23.41,47.25c-.14.2-.2.45-.16.69-1.17-.75-2.35-1.5-3.53-2.25,1.23.53,2.46,1.05,3.69,1.55ZM80.13,64.4v-.02s.05.03.07.04c-.02,0-.05-.02-.07-.03Z"/>
  <path class="cls-1" d="M86.82,161.45c-16.34,3.09-32.85,4.76-49.47,5.05-.88.02-1.18.94-.85,1.62.34.7.73,1.36,1.1,2.04-.54.81.03,2.05,1.09,1.98,0,0,.01,0,.02,0,1.53,2.52,3.28,4.84,5.27,7.03-12.77,4.7-25.31,9.5-38.58,12.8-1.36.34-.66,2.27.65,2.03,18.65-3.39,37.39-6.13,56.24-8.18.94-.1,1.25-1.11.66-1.79-2.63-3.03-5.26-6.05-7.89-9.08.36-.13.72-.26,1.08-.39,10.65-3.13,21.1-6.8,31.3-11.19,1.2-.52.65-2.15-.61-1.91ZM53.99,172.65h0s.01,0,.02,0c0,0-.01,0-.02,0ZM52.98,180.87s-.05-.09-.07-.14c.04.04.08.09.12.13-.02,0-.03,0-.05.01ZM47.49,175.17c-.5.59-.45,1.61.29,1.95.05.41.08.83.12,1.24-1.01-1.66-1.87-3.39-2.6-5.25.39-.06.79-.12,1.18-.18.33.75.67,1.49,1.01,2.23ZM46.28,181.56c.28.26.58.28.84.17.1.14.2.27.3.4-.02,0-.04.01-.07.02-1.69.29-3.38.58-5.07.88-.04,0-.07,0-.11-.01,1.16-.66,2.31-1.37,3.42-2.17.24.24.45.49.69.72ZM53.5,183.06s.02-.03.03-.05c.31-.21.63-.41.94-.64.05-.04.08-.08.12-.12.25.21.49.45.75.65-.61.05-1.22.1-1.84.16ZM63.08,168.14c-.05-.59-.45-1.09-1.23-.98-3.07.45-6.16.81-9.24,1.16-.05-.14-.12-.28-.21-.4,6.52-.46,13.01-1.13,19.48-2.02-2.92.8-5.86,1.55-8.8,2.24ZM39.86,185.67c.2.14.45.22.78.18.59-.08,1.17-.16,1.76-.24,1.22.14,2.4.18,3.54.08-4.6.59-9.2,1.22-13.79,1.89,2.56-.66,5.13-1.3,7.71-1.91ZM48.33,185.29c.07.03.15.04.22.05-.52.06-1.04.13-1.57.2.45-.07.89-.14,1.34-.25ZM58.74,182.78c-.55-.36-1.05-.75-1.56-1.13.01-.21-.02-.44-.16-.67-.64-1.04-1.32-2.03-2.03-3.01,1.74,2,3.47,4.01,5.21,6.01-.35.04-.71.08-1.06.12.19-.45.1-1.01-.39-1.33ZM42.3,171.83c-.05.2-.06.42.03.66.4,1.14.85,2.22,1.34,3.29-.93-1.24-1.81-2.53-2.63-3.85.42-.03.84-.07,1.26-.11ZM28.28,187.54c.03.22.13.43.31.58-1.27.19-2.54.39-3.8.59,1.17-.38,2.33-.76,3.5-1.16ZM77.93,165.02h0s.05-.02.07-.02c-.02,0-.04.01-.06.02Z"/>
  <path class="cls-1" d="M59.82,121.11c-8.38-1.37-16.6-3.45-24.62-6.22-.42-.15-.73.25-.69.63.04.4.11.78.17,1.17-.4.3-.34.99.17,1.14h0c.29,1.48.73,2.9,1.3,4.3-6.95.02-13.81.14-20.75-.6-.71-.07-.71.97-.04,1.09,9.54,1.63,19.02,3.59,28.42,5.9.47.11.79-.31.63-.74-.73-1.91-1.47-3.82-2.2-5.73.2,0,.39,0,.59,0,5.66.36,11.31.42,16.98.1.67-.04.69-.92.04-1.02ZM42.1,120.75h0s0,0,.01,0h-.01ZM40.18,124.52s0-.05-.01-.08c.01.03.02.06.03.08,0,0-.02,0-.02,0ZM38.54,120.83c-.34.2-.5.69-.2.99-.05.2-.1.41-.16.62-.2-.97-.3-1.95-.33-2.97.2.04.4.08.6.12.03.42.06.83.09,1.25ZM36.85,123.68c.09.17.23.23.37.23.02.08.05.16.07.25-.01,0-.02,0-.03,0-.86-.16-1.72-.31-2.58-.46-.02-.01-.03-.02-.05-.03.67-.11,1.35-.26,2.02-.44.07.16.13.31.21.47ZM40.05,125.66s.02-.01.02-.02c.19-.04.37-.09.56-.14.03,0,.05-.03.08-.04.08.15.16.3.24.44-.3-.08-.61-.16-.91-.25ZM47.25,120.18c.08-.29-.02-.6-.42-.68-1.55-.32-3.1-.69-4.64-1.06,0-.08,0-.15-.03-.23,3.21.92,6.44,1.73,9.7,2.43-1.54-.12-3.08-.28-4.62-.46ZM33.05,124.53c.07.1.18.18.34.22.3.06.59.13.89.19.56.28,1.12.51,1.68.66-2.31-.52-4.63-1.02-6.95-1.5,1.34.13,2.69.27,4.03.43ZM37.18,125.83s.06.05.1.06c-.26-.06-.53-.12-.79-.18.23.05.45.09.69.11ZM42.61,126.44c-.2-.27-.38-.54-.55-.82.04-.1.07-.22.04-.35-.13-.61-.28-1.21-.45-1.8.48,1.27.97,2.53,1.45,3.79-.18-.04-.35-.08-.53-.13.17-.18.22-.47.04-.71ZM36.64,118.32c-.06.09-.1.19-.1.32,0,.61.02,1.22.07,1.81-.23-.76-.43-1.53-.59-2.31.21.06.42.11.63.17ZM27.16,123.41c-.03.11-.01.23.05.33-.64-.13-1.28-.26-1.93-.38.63.02,1.25.04,1.88.05ZM54.92,121.27h0s.02,0,.04,0h-.04Z"/>
</svg>