<?xml version="1.0" encoding="UTF-8"?>
<svg id="Layer_1" data-name="Layer 1" xmlns="http://www.w3.org/2000/svg" viewBox="0 0 230.28 256.07">
  <defs>
    <style>
      .cls-1 {
        fill: #211e1f;
      }
    </style>
  </defs>
  <path class="cls-1" d="M106.13,55.44c-.56-.81-1.12-1.61-1.68-2.42-.75-1.08-1.61-2.43-2.57-3.76-.44-.69-.83-1.41-1.28-2.09-.3-.46-.69-.68-1.1-.79-2.44-2.48-5.36-3.84-8.73-1.07-.82.67-1.3,1.96-.54,2.91.2.25.4.5.6.75-.08.27-.06.58.12.91,2.04,3.67,4.31,7.21,6.62,10.72-5.19,3.32-10.07,7.05-12.98,11.65-.34.54-.06,1.06.4,1.33.02.06.01.11.03.17,3.28,8.61,14.21-.95,18.59-3.52.05-.03.11-.06.17-.09,2.21,3.57,4.51,7.35,7.21,10.19,3.09,3.25,7.94,2.09,8.52-2.79.38-3.19-2.38-6.25-4.04-8.64-.87-1.26-1.75-2.52-2.62-3.77,2.38-1.34,4.71-2.73,6.79-4.32,2.27-1.74,4.3-3.79,4.04-6.87-.69-8.01-9.07-3.79-12.89-1.34-1.45.93-3.04,1.88-4.67,2.84ZM88.68,71.61c-.07-.05-.15-.1-.22-.15.38-.33.71-.7,1.12-1.01-.32.36-.62.75-.9,1.15ZM98.5,51.47c.43.67.83,1.36,1.25,2.03-1.06-1.33-2.12-2.66-3.18-4,.63.53,1.28,1.2,1.92,1.96ZM115.36,54.5c.69.24,1.09.54,1.34.86-2.06,1.75-5.51,3.03-7.85,4.02-.24-.34-.47-.68-.71-1.02,3.21-2.2,6.38-4.16,7.21-3.86Z"/>
  <path class="cls-1" d="M188.21,74.64c4.68-3.01,8.11-8.11,8.41-14.86.23-5.23-1.85-9.69-5.11-13.09-1.18-1.65-2.7-3.13-4.66-4.28-2.84-1.67-5.7-2.4-8.46-2.46-7.77-1.2-15.83,1.63-19.32,10.17-3.62,8.86-.7,20.89,6.9,26.81,6.75,5.26,16.96,4.55,22.24-2.3ZM184.74,47.28c.14.08.26.18.39.27,1.65,1.29,2.73,2.97,3.36,4.79-2.06-2.77-5.34-5.56-8.83-7.04,1.59.32,3.13.87,4.57,1.67.16.11.35.19.51.3ZM179.76,56.7c.95,2.48,1.16,8.18-2.71,8.83-.55.09-1,.03-1.46-.02-1.57-.82-3.06-2.07-4.03-3.62-.77-2.36-.68-5.28-.21-7.27,1.97-2.84,6.42-3.07,8.41,2.08ZM185.43,64.88c-.17.15-.36.28-.54.42.93-2.43,1.06-5.44.46-8.35.29.56.54,1.12.7,1.67.58,2.07.27,4.29-.61,6.26Z"/>
  <path class="cls-1" d="M159.5,165.59c3.54-1.69,6.98-4.08,10.33-6.53,2.42,3.05,4.98,5.98,7.63,8.77.64.67,1.78.77,2.61.49,10.84-3.64,4.33-10.36-.67-16.27,3.71-2.79,7.12-5.79,10.01-9.56.58-.76.54-1.77-.17-2.44-.06-.06-.12-.11-.18-.17.03-.34.05-.68.02-1.02-.62-5.75-6.68-4.77-10.2-2.48-2.23,1.45-4.43,2.97-6.62,4.51-4.09-6.78-9.95-14.44-15.33-9.26-.74.71-.67,1.98-.16,2.78.05.08.11.17.17.25-.52.51-.79,1.25-.46,2.06,1.58,3.94,3.53,7.74,5.73,11.4-4.6,3.37-9.2,6.74-13.9,9.9-.67.45-.52,1.31-.04,1.78-.54.89-.56,2.04.52,2.8,1.27,1.42,2.53,2.84,3.8,4.27.99,2.05,4.63,1.89,4.58-.55.79-.15,1.58-.38,2.33-.73ZM179.03,161.83c.69-.71.98-1.76.22-2.79-.02-.03-.05-.07-.07-.1.92.93,1.71,1.8,1.75,2.17.19,2.08-.74,1.77-1.9.72ZM177.52,142.54c-.15.19-.29.37-.44.55-.82,1.04-.32,2.19.6,2.61-.11.08-.23.16-.32.23-.53.36-1.08.71-1.61,1.07-.34-.6-.73-1.3-1.16-2.06.97-.87,1.98-1.75,2.93-2.4ZM165.75,153.62c-3.69,2.4-8.18,4.98-11.63,5.33-.63-.31-1.35-.38-1.96-.13-.05-.01-.1-.01-.15-.03,4.32-1.99,8.54-4.23,12.61-6.7.03-.02.05-.03.07-.05.35.53.7,1.06,1.06,1.58Z"/>
  <path class="cls-1" d="M149.34,234.56c-.72-4.13-2.64-7.41-5.19-9.89-3.52-3.94-8.83-6.43-14.07-7.21-18.55-2.77-23.51,24.14-11.4,34.4,5.47,4.63,12.4,5.17,18.33,2.98,4.42-1.08,8.58-3.63,11.59-7.93.82-1.18.65-2.46.02-3.42.97-2.7,1.3-5.71.74-8.92ZM124.32,235.8c.14-1.02.5-1.96,1.2-2.67,1.83-.55,3.67-1.11,5.5-1.66,3.06,1.96,3.21,5.03.43,9.19-2.85.7-5.58-2.23-7.13-4.85ZM136.15,243.6c-1.87,1.69-4.38,2.41-6.94,1.33,2.47.44,4.98-.06,6.94-1.33Z"/>
  <path class="cls-1" d="M49.31,179.46c1.94-5.78,1.38-12.19-1.07-17.72,7.13-2.28,14.93-4.58,22.91-7.14,9.91,22.32,23.83,43.31,39.72,60.5,1.56,1.68,4.19-.81,2.94-2.63-13.6-19.77-27.59-38.44-37.94-59.4,24.4-8.1,49.41-19.17,60.96-40.19,3.01,2.24,5.95,4.58,8.79,7,.82.7,1.94.45,2.58-.25.24.17.5.32.74.49,1,.7,2.67.16,2.51-1.26-1.01-9.13-1.77-18.28-2.75-27.42-.18-1.65-2.03-2.09-3.15-1.05-1.92,1.79-3.83,3.57-5.75,5.36-5.22,2.28-10,5.54-14.72,8.72-.99.67-.95,2.35.2,2.84.66.28,1.31.59,1.96.88-.36.73.44,1.7,1.31,1.17.19-.12.37-.22.56-.34,1.34.61,2.68,1.24,4.01,1.89-11.66,14.19-24.27,23.37-41.89,30.37-5.75,2.29-11.92,4.11-18.11,5.99-3.49-7.73-6.46-15.81-8.71-24.38-8.11-30.87-8.42-73.11,16.14-97.08,1.57,1.52,3.28,2.9,5.07,4.15,3.17,4.07,6.82,7.31,9.78,5.42,3.07-1.96,5.13-7.32,6.82-10.36,2.95-5.29,5.54-10.74,7.77-16.38.42-1.07-.26-2.41-1.54-2.29-10.13,1.01-20.3,4.05-29.65,7.98-1.49.63-1.18,2.51-.02,2.97-.18.28-.26.61-.28.94-.65-.58-1.26-1.17-1.94-1.74-.79-.66-2.06.14-1.68,1.15.92,2.42,2.37,4.58,4.11,6.54-26.22,18.87-26.19,62.68-20.58,90.92,2.23,11.26,5.72,22.54,10.21,33.55-7.87,2.46-15.59,5.24-22.44,9.32-2.18-3.26-5.08-6.03-8.69-7.79-11.31-5.53-25.68-.53-29.61,11.81-2.59,8.15.66,16.38,6.67,21.8,2.57,3.38,5.96,6.16,9.86,7.87,10.41,4.56,21.45-1.97,24.9-12.24ZM145.83,97.49s-.02,0-.03-.01c.01-.05.02-.09.01-.14,0,.05.01.1.02.15ZM143.61,104.17s-.03-.08-.05-.13c.01-.01.02-.03.03-.04,0,.05.01.11.02.16ZM139.96,107.97c0,.24-.05.47-.07.71-.55-.3-1.11-.6-1.66-.91-.29-.31-.67-.52-1.07-.58-.79-.43-1.59-.86-2.38-1.3.15,0,.29.02.45,0,1.2-.23,2.41-.46,3.61-.69.65.76,1.11,2.01,1.13,2.78ZM143.27,112.8c.08-.15.19-.29.23-.46.26-.91.47-1.89.61-2.89.13,1.36.26,2.72.39,4.09-.41-.26-.82-.49-1.23-.74ZM145.8,97.21c-.06-.11-.15-.2-.31-.18-.97.16-1.88.53-2.78.97.95-.9,1.9-1.8,2.85-2.7.08.63.15,1.27.23,1.9ZM91.34,23.56c.73-.51,1.46-1.02,2.19-1.53-.32.59-.66,1.17-.96,1.77-.22.07-.41.23-.53.46-.11-.19-.28-.38-.51-.54-.07-.05-.13-.11-.2-.16ZM88.63,20.6c-.66-.48-1.34-.94-2.05-1.33,1.85-.33,3.69-.72,5.53-1.14-1.16.82-2.32,1.64-3.48,2.46ZM86.9,24.85c.75.54,1.49,1.09,2.26,1.62.71.48,1.48.41,2.08.07-.1.31-.21.62-.31.93-.07.22-.06.41-.01.59-.1.12-.19.25-.29.37-.77-.49-1.54-.97-2.24-1.5-.51-.68-.98-1.39-1.47-2.08ZM95.04,22.2c.14.02.28.03.43,0-.23.3-.47.6-.7.9.1-.3.17-.61.28-.91ZM105.98,10.3c-.16.02-.31.03-.49.1-6.53,2.48-13.16,4.2-19.98,5.32,6.8-1.94,13.63-3.67,20.48-5.46,0,.01-.01.03-.02.04ZM93.27,31.51c2.26-2.78,4.55-5.56,6.81-8.36-.76,1.39-1.53,2.78-2.36,4.14-1.36,2.23-1.7,4.72-4.45,4.22ZM31.33,181.21c-.26.03-.5.08-.77.1-1.58.07-3.02-.33-4.36-.94-1.18-.73-2.18-1.76-2.94-3.03,3.8,2.78,8.38,2.47,11.55-.69,1-.19,1.97-.44,2.89-.81-.46,1.42-1.23,2.67-2.31,3.62-1.15.82-2.51,1.43-4.06,1.75ZM30.48,171.57c-2.54-.14-6.19-1.33-7.93-3.73.02-2.53,1.54-4.7,5.18-4.32.18.02.34-.04.48-.12.44.06.87.1,1.37.24,3.61,1.06,4.68,5,3.47,7.88-.78.08-1.63.1-2.57.04ZM44.66,175.35c-.06-.3-.1-.58-.18-.89.33-1.28.54-2.57.6-3.89.09,1.65-.08,3.24-.42,4.77Z"/>
  <path class="cls-1" d="M69.35,220.94c-.69-1.13-2.37-1.37-3.42-.64-3.57,2.48-7.12,4.99-10.69,7.47-.56-.61-1.11-1.24-1.68-1.84-3.2-3.45-13.19-15.22-16.73-5.18-.4,1.15-.24,2.09.6,2.96.68.71,1.32,1.45,2,2.16-.11.24-.16.51-.05.84,1.05,3.12,2.9,5.97,4.95,8.71-4.53,3.25-9.21,6.78-11.44,11.99-.38.9.42,1.97,1.31,1.86,0,.55.15,1.11.41,1.58,1.12,2.07,2.39,3.21,4.36,4.44.67.42,1.89.34,2.49-.18,3.56-3.11,7.2-6.11,10.88-9.07,2.18,3.16,4.54,6.44,7.65,8.36,3.94,2.44,11.84,1.72,12.06-4.3.14-3.97-5.55-9.24-7.9-12.16-.17-.21-.35-.4-.52-.61,2.99-2.2,6.02-4.37,9.09-6.47,1.14-.78,1.35-2.3.64-3.44-1.34-2.17-2.68-4.34-4.01-6.51ZM66.87,226.3c-.16-.13-.34-.21-.53-.31.08-.06.16-.11.24-.16.1.16.19.31.29.47ZM67.84,227.89c.05.08.1.17.16.26-.05.03-.09.06-.13.09,0-.12,0-.23-.02-.35ZM51.25,230.55c-.16.11-.32.22-.48.33-2.06-2.27-4.15-4.52-6.25-6.76,2.09,1.67,4.75,4.34,6.72,6.42ZM41.06,248.76c2.65-2.45,5.39-4.78,8.22-6.98.05.07.1.14.16.2-.72.58-1.45,1.14-2.16,1.72-1.04.85-3.94,4.23-6.21,5.06ZM66.36,248.73c-2.3-2.76-4.67-5.45-7.02-8.16.24-.18.48-.36.72-.54,3.25,3.63,6.49,7.56,6.3,8.7Z"/>
  <path class="cls-1" d="M193.9,85.97c-.94-1.2-2.72.02-1.95,1.33,14.24,24.11,31.21,47.48,33.65,76.29,2.22,26.32-10.67,53.05-36.8,60.23-.52-1.98-1.03-3.96-1.56-5.94-.13-.47-.38-.78-.66-1.01-.2-.92-.41-1.82-.6-2.74-.2-1.01-1.19-1.39-1.95-1.18-.9-.79-2.44-.92-3.24.12-2.73,3.53-5.73,6.78-8.96,9.83-2.62,2.08-5.24,4.16-7.86,6.24-1.28,1.02-1.37,3.17.28,3.93.64.29,1.31.52,1.96.8-.65-.07-1.29-.19-1.95-.23-.37-.03-.57.44-.22.64,7.83,4.5,18.43,5.41,27.26,6.13,1.01.08,2.08-.77,1.63-1.88-.43-1.05-.78-2.1-1.17-3.16.05-.34.05-.7-.07-1.09-.6-1.96-1.13-3.95-1.67-5.94,23.92-5.92,38.82-29.85,40.14-53.85,1.81-32.93-16.8-63.51-36.26-88.51ZM170.3,229.89c.67.11,1.3.27,1.93.43.2.23.44.45.8.59,2,.81,4.01,1.61,6.01,2.44.33.23.64.52.96.77-1.28-.38-2.4-.73-2.86-.87-2.57-.79-5.05-1.77-7.51-2.82.22-.18.45-.35.67-.53ZM182.89,222.88s.05-.1.07-.15c.04.25.09.49.14.74-.07-.2-.13-.4-.2-.59ZM179.84,228.42c-.22-.13-.44-.27-.67-.39.16-.15.31-.29.46-.44.08.27.13.55.2.83ZM189.39,237.32s0,0,0,0c-.02,0-.04,0-.05,0,.02,0,.03,0,.05,0Z"/>
  <path class="cls-1" d="M8.02,148.81c.18-.23-.09-.55-.34-.38-7.83,5.15-9.45,16.51-5.86,24.66.35.79,1.6.37,1.28-.45-3.44-8.84-.71-16.7,4.92-23.82Z"/>
  <path class="cls-1" d="M203.96,57.42c.13,1,1.66.91,1.58-.11-.69-8.57-6.28-17.75-14.59-20.87-.44-.16-.96.43-.5.75,7.42,5.06,12.31,11.08,13.5,20.24Z"/>
  <path class="cls-1" d="M136.39,212.13c-.17-.04-.22.19-.09.27,2.69,1.71,5.32,3.69,7.83,5.68,2.36,1.88,4.21,4.22,6.44,6.22.49.45,1.46-.12,1.14-.78-2.88-5.83-9.2-9.87-15.31-11.41Z"/>
  <path class="cls-1" d="M156.5,115.27c.16-5.67-1.47-11.79-2.38-17.39-.15-.91-1.54-.84-1.45.1.55,5.71.55,12.12,2.17,17.63.29.99,1.64.56,1.66-.35Z"/>
  <path class="cls-1" d="M92.72,4.01c4.46-1.2,9-1.57,13.61-1.62,1.24-.01,1.4-2.09.14-2.21-8.34-.79-19.8.82-25.58,7.54-.18.21.04.47.28.41,3.98-1.03,7.56-3.06,11.54-4.13Z"/>
</svg>